<svg xmlns="http://www.w3.org/2000/svg" xmlns:xlink="http://www.w3.org/1999/xlink" width="192" zoomAndPan="magnify" viewBox="0 0 144 191.999996" height="256" preserveAspectRatio="xMidYMid meet" version="1.0"><defs><clipPath id="c25d696142"><path d="M 49 189.867188 L 73.21875 189.867188 L 73.21875 191.6875 L 49 191.6875 Z M 49 189.867188 " clip-rule="nonzero"/></clipPath><clipPath id="be714bee1d"><path d="M 73 189.867188 L 92.980469 189.867188 L 92.980469 191.6875 L 73 191.6875 Z M 73 189.867188 " clip-rule="nonzero"/></clipPath><clipPath id="f4308d6006"><path d="M 39.359375 98 L 49 98 L 49 114 L 39.359375 114 Z M 39.359375 98 " clip-rule="nonzero"/></clipPath><clipPath id="8521b1e2ed"><path d="M 87.140625 46.113281 L 104.609375 46.113281 L 104.609375 82 L 87.140625 82 Z M 87.140625 46.113281 " clip-rule="nonzero"/></clipPath><clipPath id="1b81d00aeb"><path d="M 94.328125 72.167969 L 104.609375 72.167969 L 104.609375 98 L 94.328125 98 Z M 94.328125 72.167969 " clip-rule="nonzero"/></clipPath></defs><path fill="#faa284" d="M 70.574219 183.375 L 64.0625 183.375 L 64.0625 175.964844 L 70.574219 175.964844 L 70.574219 183.375 " fill-opacity="1" fill-rule="nonzero"/><path fill="#5e8c9e" d="M 71.75 144.703125 C 71.675781 141.335938 68.980469 139.09375 66.140625 139.09375 C 63.164062 139.09375 60.535156 141.523438 60.535156 144.703125 C 60.484375 146.265625 62.273438 179.371094 62.273438 179.371094 C 65.050781 180.519531 68.683594 180.316406 72.335938 179.054688 L 71.75 144.703125 " fill-opacity="1" fill-rule="nonzero"/><path fill="#5e8c9e" d="M 70.996094 102.476562 C 70.996094 99.101562 68.261719 96.367188 64.890625 96.367188 C 61.519531 96.367188 58.785156 99.101562 58.785156 102.476562 C 58.785156 102.558594 60.457031 143.152344 60.535156 144.703125 C 60.605469 148.253906 63.492188 150.3125 66.140625 150.3125 C 69.042969 150.3125 71.871094 147.914062 71.746094 144.5 L 70.996094 102.476562 " fill-opacity="1" fill-rule="nonzero"/><path fill="#faa284" d="M 62.976562 182.738281 C 62.976562 182.738281 63.855469 181.367188 67.390625 181.367188 C 70.929688 181.367188 71.246094 182.851562 71.246094 182.851562 L 71.246094 184.5 L 63.003906 184.5 L 62.976562 182.738281 " fill-opacity="1" fill-rule="nonzero"/><g clip-path="url(#c25d696142)"><path fill="#d0d1d8" d="M 73.042969 191.6875 L 49.242188 191.6875 L 49.242188 189.890625 L 73.042969 189.890625 L 73.042969 191.6875 " fill-opacity="1" fill-rule="nonzero"/></g><path fill="#6f7072" d="M 49.410156 189.890625 C 49.410156 189.890625 48.304688 185.640625 56.207031 186.296875 L 62.921875 181.570312 C 62.921875 181.570312 63.449219 181.121094 63.945312 181.582031 C 64.4375 182.039062 66.203125 183.71875 68.355469 183.4375 C 70.507812 183.15625 70.5625 181.800781 71.320312 181.90625 C 72.078125 182.015625 73.328125 185.398438 73.117188 189.890625 L 49.410156 189.890625 " fill-opacity="1" fill-rule="nonzero"/><path fill="#cbccd3" d="M 56.207031 186.265625 C 48.304688 185.609375 49.410156 189.890625 49.410156 189.890625 L 56.871094 189.890625 C 56.871094 187.195312 56.207031 186.265625 56.207031 186.265625 " fill-opacity="1" fill-rule="nonzero"/><path fill="#eaebf4" d="M 59.074219 186.796875 C 58.976562 186.796875 58.886719 186.75 58.832031 186.664062 C 58.316406 185.835938 57.632812 185.441406 57.628906 185.4375 C 57.492188 185.359375 57.445312 185.183594 57.523438 185.050781 C 57.597656 184.914062 57.773438 184.867188 57.90625 184.945312 C 57.941406 184.964844 58.722656 185.417969 59.3125 186.367188 C 59.394531 186.496094 59.351562 186.671875 59.222656 186.753906 C 59.175781 186.785156 59.125 186.796875 59.074219 186.796875 " fill-opacity="1" fill-rule="nonzero"/><path fill="#eaebf4" d="M 60.226562 185.980469 C 60.128906 185.980469 60.039062 185.933594 59.984375 185.847656 C 59.46875 185.019531 58.785156 184.625 58.78125 184.617188 C 58.644531 184.542969 58.597656 184.371094 58.675781 184.234375 C 58.75 184.097656 58.921875 184.050781 59.058594 184.128906 C 59.089844 184.148438 59.875 184.601562 60.464844 185.550781 C 60.546875 185.683594 60.503906 185.855469 60.371094 185.941406 C 60.328125 185.964844 60.273438 185.980469 60.226562 185.980469 " fill-opacity="1" fill-rule="nonzero"/><path fill="#eaebf4" d="M 61.375 185.164062 C 61.28125 185.164062 61.191406 185.117188 61.136719 185.03125 C 60.621094 184.203125 59.9375 183.808594 59.929688 183.804688 C 59.796875 183.726562 59.746094 183.554688 59.824219 183.417969 C 59.902344 183.28125 60.074219 183.234375 60.210938 183.3125 C 60.246094 183.332031 61.027344 183.785156 61.617188 184.734375 C 61.699219 184.867188 61.65625 185.042969 61.523438 185.125 C 61.476562 185.152344 61.425781 185.164062 61.375 185.164062 " fill-opacity="1" fill-rule="nonzero"/><path fill="#eaebf4" d="M 62.527344 184.351562 C 62.433594 184.351562 62.339844 184.300781 62.289062 184.214844 C 61.773438 183.386719 61.089844 182.992188 61.082031 182.988281 C 60.949219 182.910156 60.898438 182.738281 60.976562 182.605469 C 61.054688 182.46875 61.226562 182.417969 61.363281 182.496094 C 61.394531 182.515625 62.179688 182.96875 62.765625 183.917969 C 62.847656 184.050781 62.808594 184.226562 62.675781 184.304688 C 62.628906 184.335938 62.578125 184.351562 62.527344 184.351562 " fill-opacity="1" fill-rule="nonzero"/><path fill="#faa284" d="M 90.296875 183.285156 L 83.789062 183.472656 L 83.574219 176.0625 L 90.082031 175.875 L 90.296875 183.285156 " fill-opacity="1" fill-rule="nonzero"/><path fill="#5e8c9e" d="M 90.296875 144.523438 C 90.125 141.15625 87.371094 138.996094 84.527344 139.078125 C 81.550781 139.164062 78.992188 141.664062 79.085938 144.84375 C 79.082031 146.410156 81.820312 179.449219 81.820312 179.449219 C 84.628906 180.519531 88.25 180.210938 91.867188 178.84375 L 90.296875 144.523438 " fill-opacity="1" fill-rule="nonzero"/><path fill="#5e8c9e" d="M 88.335938 102.335938 C 88.234375 98.960938 85.425781 96.308594 82.054688 96.402344 C 78.6875 96.5 76.03125 99.3125 76.128906 102.683594 C 76.128906 102.769531 78.964844 143.296875 79.085938 144.84375 C 79.257812 148.394531 82.203125 150.367188 84.851562 150.289062 C 87.75 150.207031 90.511719 147.730469 90.285156 144.320312 L 88.335938 102.335938 " fill-opacity="1" fill-rule="nonzero"/><path fill="#faa284" d="M 82.285156 182.738281 C 82.285156 182.738281 83.167969 181.367188 86.703125 181.367188 C 90.238281 181.367188 90.554688 182.851562 90.554688 182.851562 L 90.554688 184.5 L 82.3125 184.5 L 82.285156 182.738281 " fill-opacity="1" fill-rule="nonzero"/><g clip-path="url(#be714bee1d)"><path fill="#d0d1d8" d="M 92.578125 191.6875 L 73.042969 191.6875 L 73.042969 189.890625 L 92.578125 189.890625 L 92.578125 191.6875 " fill-opacity="1" fill-rule="nonzero"/></g><path fill="#6f7072" d="M 73.113281 189.890625 C 73.113281 189.890625 72.695312 186.292969 77.269531 186.195312 L 82.800781 181.351562 C 82.800781 181.351562 83.800781 180.601562 85.109375 181.355469 C 86.085938 181.914062 86.226562 183.542969 88 183.253906 C 89.773438 182.964844 89.816406 181.597656 90.441406 181.707031 C 91.066406 181.8125 92.820312 184.949219 92.644531 189.890625 L 73.113281 189.890625 " fill-opacity="1" fill-rule="nonzero"/><path fill="#cbccd3" d="M 77.269531 186.183594 C 72.695312 186.277344 73.113281 189.890625 73.113281 189.890625 L 80.78125 189.890625 C 80.789062 186.296875 77.269531 186.183594 77.269531 186.183594 " fill-opacity="1" fill-rule="nonzero"/><path fill="#eaebf4" d="M 80.757812 186.8125 C 80.683594 186.8125 80.605469 186.78125 80.550781 186.71875 C 79.539062 185.644531 78.121094 185.617188 78.109375 185.613281 C 77.949219 185.613281 77.820312 185.484375 77.824219 185.324219 C 77.824219 185.164062 77.957031 185.035156 78.113281 185.039062 C 78.183594 185.039062 79.792969 185.070312 80.96875 186.324219 C 81.078125 186.445312 81.074219 186.625 80.957031 186.734375 C 80.902344 186.789062 80.828125 186.8125 80.757812 186.8125 " fill-opacity="1" fill-rule="nonzero"/><path fill="#eaebf4" d="M 81.914062 185.800781 C 81.839844 185.800781 81.761719 185.769531 81.703125 185.710938 C 80.691406 184.632812 79.277344 184.605469 79.261719 184.605469 C 79.101562 184.601562 78.976562 184.484375 78.976562 184.324219 C 78.980469 184.164062 79.109375 184.050781 79.265625 184.050781 C 79.269531 184.050781 79.269531 184.050781 79.269531 184.050781 C 79.339844 184.050781 80.945312 184.070312 82.125 185.324219 C 82.234375 185.441406 82.230469 185.617188 82.113281 185.730469 C 82.058594 185.78125 81.984375 185.800781 81.914062 185.800781 " fill-opacity="1" fill-rule="nonzero"/><path fill="#eaebf4" d="M 83.070312 184.789062 C 82.992188 184.789062 82.917969 184.761719 82.859375 184.699219 C 81.847656 183.621094 80.433594 183.59375 80.417969 183.59375 C 80.257812 183.59375 80.132812 183.417969 80.132812 183.257812 C 80.136719 183.097656 80.265625 182.925781 80.421875 182.925781 C 80.421875 182.925781 80.425781 182.925781 80.425781 182.925781 C 80.492188 182.925781 82.101562 183.003906 83.28125 184.257812 C 83.390625 184.375 83.382812 184.582031 83.269531 184.691406 C 83.210938 184.742188 83.140625 184.789062 83.070312 184.789062 " fill-opacity="1" fill-rule="nonzero"/><path fill="#eaebf4" d="M 84.226562 183.78125 C 84.148438 183.78125 84.070312 183.75 84.015625 183.6875 C 83.003906 182.609375 81.589844 182.582031 81.574219 182.582031 C 81.414062 182.582031 81.289062 182.460938 81.289062 182.300781 C 81.289062 182.144531 81.417969 182.027344 81.578125 182.027344 C 81.578125 182.027344 81.578125 182.027344 81.582031 182.027344 C 81.648438 182.027344 83.257812 182.050781 84.4375 183.304688 C 84.546875 183.417969 84.539062 183.597656 84.425781 183.707031 C 84.367188 183.757812 84.296875 183.78125 84.226562 183.78125 " fill-opacity="1" fill-rule="nonzero"/><path fill="#7eb0bc" d="M 62.128906 176.675781 C 62.128906 176.675781 61.710938 176.785156 61.949219 177.703125 C 62.183594 178.621094 61.75 179.324219 62.253906 179.675781 C 62.757812 180.023438 66.578125 181.351562 72.230469 179.40625 C 72.230469 179.40625 72.882812 179.125 72.472656 177.8125 C 72.300781 177.273438 72.757812 176.617188 72.289062 176.222656 C 72.289062 176.222656 66.085938 178.191406 62.128906 176.675781 " fill-opacity="1" fill-rule="nonzero"/><path fill="#7eb0bc" d="M 81.609375 176.625 C 81.609375 176.625 81.199219 176.75 81.464844 177.65625 C 81.730469 178.5625 81.320312 179.285156 81.835938 179.617188 C 82.355469 179.949219 86.214844 181.148438 91.796875 179.011719 C 91.796875 179.011719 92.441406 178.710938 91.984375 177.414062 C 91.796875 176.878906 92.234375 176.207031 91.75 175.832031 C 91.75 175.832031 85.617188 178.003906 81.609375 176.625 " fill-opacity="1" fill-rule="nonzero"/><g clip-path="url(#f4308d6006)"><path fill="#faa284" d="M 42.949219 100.667969 C 42.949219 100.667969 40.160156 106.632812 39.855469 107.203125 C 39.554688 107.773438 39.375 108.539062 39.75 109.328125 C 40.039062 109.9375 42.40625 114.5 43.953125 113.804688 C 45.503906 113.101562 47.992188 111.066406 47.992188 111.066406 C 47.992188 111.066406 48.558594 110.707031 48.15625 110.1875 C 47.886719 109.839844 47.375 109.878906 47.265625 109.902344 L 48.222656 109.183594 C 48.222656 109.183594 48.722656 108.839844 48.398438 108.386719 C 48.125 108.003906 47.34375 108.039062 47.34375 108.039062 C 47.34375 108.039062 48.089844 107.628906 47.785156 107.109375 C 47.570312 106.75 47.152344 106.714844 46.988281 106.753906 C 46.988281 106.753906 47.332031 106.132812 46.714844 105.773438 C 46.714844 105.773438 47.890625 103.574219 47.003906 101.054688 C 47.003906 101.054688 46.964844 99.25 45.15625 98.972656 C 43.347656 98.695312 42.949219 100.667969 42.949219 100.667969 " fill-opacity="1" fill-rule="nonzero"/></g><path fill="#ef8d72" d="M 42.03125 108.082031 C 41.066406 109.3125 43.195312 112.148438 43.65625 112.503906 C 44.230469 112.949219 46.347656 111.523438 47.207031 110.953125 C 47.761719 110.589844 47.828125 110.167969 47.816406 109.949219 C 47.582031 109.863281 47.339844 109.886719 47.265625 109.902344 L 48.222656 109.183594 C 48.222656 109.183594 48.722656 108.839844 48.398438 108.386719 C 48.125 108.003906 47.34375 108.039062 47.34375 108.039062 C 47.34375 108.039062 48.066406 107.707031 47.785156 107.109375 C 47.628906 106.777344 47.152344 106.714844 46.988281 106.753906 C 46.988281 106.753906 47.332031 106.132812 46.714844 105.773438 C 43.886719 105.820312 42.996094 106.847656 42.03125 108.082031 " fill-opacity="1" fill-rule="nonzero"/><path fill="#faa284" d="M 46.714844 105.773438 C 46.714844 105.773438 46.269531 107.089844 46.109375 108.0625 C 45.890625 109.40625 45.726562 110.308594 45.667969 111.019531 C 45.539062 112.558594 44.09375 112.351562 44.179688 111.089844 C 44.261719 109.898438 44.1875 108.625 44.042969 108.054688 C 43.863281 107.332031 43.566406 106.890625 43.402344 106.664062 C 43.402344 106.664062 43.480469 104.964844 45.039062 104.796875 C 46.59375 104.628906 46.824219 105.359375 46.714844 105.773438 " fill-opacity="1" fill-rule="nonzero"/><path fill="#e2a034" d="M 41.894531 100.675781 L 48.03125 102.417969 L 49.769531 97.542969 L 43.171875 95.667969 L 41.894531 100.675781 " fill-opacity="1" fill-rule="nonzero"/><path fill="#eaa434" d="M 51.59375 81.871094 C 49.105469 81.164062 47.617188 78.570312 48.25 76.070312 C 50.394531 64.4375 52.960938 50.523438 53.058594 50.1875 C 53.878906 47.300781 56.894531 45.617188 59.78125 46.4375 C 62.660156 47.253906 64.34375 50.257812 63.542969 53.136719 L 57.507812 78.601562 L 57.5 78.640625 C 56.746094 81.132812 54.097656 82.582031 51.59375 81.871094 " fill-opacity="1" fill-rule="nonzero"/><path fill="#eaa434" d="M 57.46875 78.726562 C 57.480469 78.683594 57.507812 78.601562 57.507812 78.601562 L 57.527344 78.542969 L 57.542969 78.492188 C 58.210938 75.976562 56.714844 73.351562 54.210938 72.640625 C 51.707031 71.929688 49.046875 73.390625 48.253906 75.832031 C 47.914062 76.574219 45.710938 81.675781 42.332031 95.894531 L 50.222656 98.136719 C 52.640625 92.988281 56.316406 84.617188 57.46875 78.726562 " fill-opacity="1" fill-rule="nonzero"/><path fill="#5e8c9e" d="M 88.3125 92.855469 L 58.738281 92.855469 L 58.851562 103.378906 C 58.933594 107.191406 62.035156 110.292969 65.832031 110.425781 L 81.359375 110.546875 C 85.234375 110.4375 88.3125 107.21875 88.3125 103.316406 C 88.3125 103.101562 88.3125 92.855469 88.3125 92.855469 " fill-opacity="1" fill-rule="nonzero"/><path fill="#4a7582" d="M 83.546875 93.601562 C 83.175781 95.15625 82.671875 99.449219 87.738281 101.207031 C 87.738281 101.207031 88.335938 96.414062 87.851562 93.601562 L 83.546875 93.601562 " fill-opacity="1" fill-rule="nonzero"/><path fill="#7eb0bc" d="M 87.832031 102.445312 C 85.335938 101.667969 83.628906 100.363281 82.765625 98.566406 C 81.875 96.71875 82.082031 94.75 82.328125 93.601562 L 81.863281 93.601562 C 81.605469 94.820312 81.429688 96.824219 82.359375 98.757812 C 83.1875 100.484375 84.734375 101.78125 86.953125 102.617188 C 87.195312 102.710938 87.441406 102.796875 87.699219 102.875 C 87.816406 102.910156 87.941406 102.84375 87.980469 102.726562 C 88.015625 102.605469 87.953125 102.484375 87.832031 102.445312 " fill-opacity="1" fill-rule="nonzero"/><path fill="#4a7582" d="M 75.941406 109.640625 C 75.898438 109.640625 75.859375 109.628906 75.820312 109.605469 C 75.714844 109.539062 75.6875 109.398438 75.753906 109.292969 C 75.773438 109.261719 77.8125 106.113281 80.785156 104.003906 C 80.886719 103.9375 81.027344 103.957031 81.101562 104.058594 C 81.171875 104.160156 81.148438 104.300781 81.046875 104.375 C 78.140625 106.429688 76.152344 109.503906 76.132812 109.539062 C 76.089844 109.605469 76.015625 109.640625 75.941406 109.640625 " fill-opacity="1" fill-rule="nonzero"/><path fill="#4a7582" d="M 77.269531 109.1875 C 77.203125 109.1875 77.140625 109.160156 77.09375 109.105469 C 77.015625 109.011719 77.03125 108.867188 77.125 108.789062 C 77.164062 108.757812 81.046875 105.625 85.984375 104.726562 C 86.105469 104.703125 86.222656 104.78125 86.246094 104.902344 C 86.265625 105.027344 86.1875 105.144531 86.0625 105.164062 C 81.238281 106.042969 77.449219 109.105469 77.410156 109.136719 C 77.367188 109.171875 77.316406 109.1875 77.269531 109.1875 " fill-opacity="1" fill-rule="nonzero"/><path fill="#4a7582" d="M 77.042969 110.066406 C 76.9375 110.066406 76.84375 109.988281 76.824219 109.882812 C 76.796875 109.761719 76.878906 109.644531 77 109.621094 C 77.199219 109.578125 81.902344 108.664062 84.386719 109.195312 C 84.507812 109.222656 84.585938 109.339844 84.5625 109.464844 C 84.535156 109.585938 84.414062 109.660156 84.292969 109.636719 C 81.898438 109.125 77.132812 110.050781 77.085938 110.058594 C 77.070312 110.0625 77.054688 110.066406 77.042969 110.066406 " fill-opacity="1" fill-rule="nonzero"/><path fill="#4a7582" d="M 71.429688 109.640625 C 71.472656 109.640625 71.511719 109.628906 71.550781 109.605469 C 71.65625 109.539062 71.683594 109.398438 71.617188 109.292969 C 71.597656 109.261719 69.5625 106.113281 66.585938 104.003906 C 66.484375 103.9375 66.34375 103.957031 66.273438 104.058594 C 66.199219 104.160156 66.222656 104.300781 66.324219 104.375 C 69.230469 106.429688 71.21875 109.503906 71.242188 109.539062 C 71.285156 109.605469 71.355469 109.640625 71.429688 109.640625 " fill-opacity="1" fill-rule="nonzero"/><path fill="#4a7582" d="M 70.105469 109.1875 C 70.167969 109.1875 70.234375 109.160156 70.277344 109.105469 C 70.355469 109.011719 70.34375 108.867188 70.246094 108.789062 C 70.207031 108.757812 66.328125 105.625 61.386719 104.726562 C 61.265625 104.703125 61.148438 104.78125 61.125 104.902344 C 61.105469 105.027344 61.183594 105.144531 61.308594 105.164062 C 66.136719 106.042969 69.925781 109.105469 69.960938 109.136719 C 70.003906 109.171875 70.054688 109.1875 70.105469 109.1875 " fill-opacity="1" fill-rule="nonzero"/><path fill="#4a7582" d="M 70.328125 110.066406 C 70.433594 110.066406 70.527344 109.988281 70.546875 109.882812 C 70.574219 109.761719 70.492188 109.644531 70.371094 109.621094 C 70.171875 109.578125 65.46875 108.664062 62.984375 109.195312 C 62.863281 109.222656 62.785156 109.339844 62.8125 109.464844 C 62.835938 109.585938 62.957031 109.660156 63.078125 109.636719 C 65.476562 109.125 70.238281 110.050781 70.285156 110.058594 C 70.300781 110.0625 70.316406 110.066406 70.328125 110.066406 " fill-opacity="1" fill-rule="nonzero"/><path fill="#7eb0bc" d="M 73.949219 110 C 73.851562 110 73.765625 109.9375 73.734375 109.839844 C 71.890625 103.808594 72.261719 93.972656 72.265625 93.875 C 72.269531 93.75 72.371094 93.65625 72.5 93.660156 C 72.625 93.664062 72.71875 93.769531 72.714844 93.894531 C 72.710938 93.988281 72.34375 103.75 74.164062 109.707031 C 74.199219 109.828125 74.132812 109.953125 74.015625 109.988281 C 73.992188 109.996094 73.972656 110 73.949219 110 " fill-opacity="1" fill-rule="nonzero"/><path fill="#7eb0bc" d="M 72.457031 106.332031 C 72.453125 106.332031 72.453125 106.332031 72.453125 106.332031 C 72.429688 106.332031 70.316406 106.320312 69.527344 103.910156 C 68.773438 101.617188 69.015625 94.46875 69.027344 94.167969 C 69.03125 94.042969 69.140625 93.957031 69.261719 93.964844 C 69.386719 93.96875 69.480469 94.078125 69.476562 94.203125 C 69.476562 94.277344 69.226562 101.605469 69.953125 103.824219 C 70.644531 105.929688 72.441406 105.992188 72.457031 105.992188 C 72.582031 105.992188 72.679688 106.042969 72.679688 106.167969 C 72.679688 106.289062 72.578125 106.332031 72.457031 106.332031 " fill-opacity="1" fill-rule="nonzero"/><path fill="#4a7582" d="M 59.019531 93.601562 L 59.1875 99.890625 C 59.1875 99.890625 61.582031 97.234375 61.730469 93.882812 L 59.019531 93.601562 " fill-opacity="1" fill-rule="nonzero"/><path fill="#7eb0bc" d="M 59.410156 101.429688 C 59.335938 101.429688 59.265625 101.394531 59.222656 101.328125 C 59.15625 101.222656 59.183594 101.085938 59.289062 101.019531 C 62.554688 98.902344 62.851562 93.921875 62.855469 93.871094 C 62.859375 93.746094 62.96875 93.652344 63.089844 93.660156 C 63.214844 93.667969 63.308594 93.773438 63.300781 93.894531 C 63.292969 94.109375 62.996094 99.152344 59.53125 101.394531 C 59.496094 101.417969 59.453125 101.429688 59.410156 101.429688 " fill-opacity="1" fill-rule="nonzero"/><path fill="#faa284" d="M 79.328125 44.339844 L 70.125 44.339844 L 70.125 33.558594 L 79.328125 33.558594 L 79.328125 44.339844 " fill-opacity="1" fill-rule="nonzero"/><path fill="#ef8d72" d="M 79.328125 38.234375 L 79.328125 33.558594 L 70.125 33.558594 L 70.125 40.820312 C 71.695312 41.011719 76.859375 41.378906 79.328125 38.234375 " fill-opacity="1" fill-rule="nonzero"/><path fill="#faa284" d="M 68.925781 43.429688 C 68.925781 43.429688 74.34375 42.167969 80.796875 43.429688 C 80.796875 43.429688 79.171875 47.136719 74.34375 47.136719 C 69.515625 47.136719 68.925781 43.429688 68.925781 43.429688 " fill-opacity="1" fill-rule="nonzero"/><path fill="#e2a034" d="M 58.449219 92.480469 L 58.449219 96.074219 C 58.449219 96.074219 68.101562 100.285156 88.761719 96.074219 L 88.761719 92.253906 L 58.449219 92.480469 " fill-opacity="1" fill-rule="nonzero"/><path fill="#f2af36" d="M 98.21875 50.398438 C 97.296875 47.070312 94.359375 46.546875 94.359375 46.546875 C 94.359375 46.546875 86.613281 44.386719 80.226562 42.996094 C 80.226562 42.996094 78.847656 46.695312 73.644531 46.609375 C 69.136719 46.539062 69.570312 42.996094 69.570312 42.996094 C 66.664062 43.453125 59.320312 45.171875 56.421875 46.527344 C 56.421875 46.527344 53.375 47.546875 53.085938 51.027344 C 53.085938 51.027344 53.042969 52.597656 56.339844 54.761719 C 56.542969 58.429688 57.011719 63.5 58.023438 70.332031 C 59.042969 77.246094 58.832031 81.308594 58.742188 89.449219 C 58.734375 90.117188 58.03125 90.554688 58.027344 91.28125 C 58.023438 91.90625 58.316406 92.789062 58.714844 93.492188 C 58.714844 93.492188 68.148438 97.445312 88.957031 93.476562 C 88.957031 93.476562 89.554688 92.601562 89.5 91.320312 C 89.476562 90.800781 88.804688 90.308594 88.78125 89.636719 C 88.644531 85.488281 88.539062 78.710938 89.199219 73.097656 C 90.035156 66.035156 92.800781 59.152344 93.25 55.355469 L 93.25 55.359375 C 99.089844 52.902344 98.21875 50.398438 98.21875 50.398438 " fill-opacity="1" fill-rule="nonzero"/><path fill="#e2a034" d="M 73.707031 48.867188 C 79.824219 48.933594 82.425781 44.953125 83.085938 43.644531 C 82.125 43.417969 81.167969 43.199219 80.238281 42.996094 C 80.238281 42.996094 78.851562 46.695312 73.648438 46.609375 C 69.140625 46.539062 69.570312 42.996094 69.570312 42.996094 C 68.859375 43.109375 67.878906 43.296875 66.765625 43.535156 C 66.992188 44.976562 68.117188 48.804688 73.707031 48.867188 " fill-opacity="1" fill-rule="nonzero"/><path fill="#faa284" d="M 97.816406 101.261719 C 97.816406 101.261719 94.464844 102.90625 94.011719 103.945312 C 93.558594 104.984375 92.308594 107.398438 92.214844 107.925781 C 91.984375 109.226562 91.0625 110.816406 91.386719 110.996094 C 91.714844 111.171875 92.34375 111.601562 93.578125 109.207031 L 92.84375 112.117188 C 92.84375 112.117188 92.511719 113.152344 93.335938 113.394531 C 94.21875 113.652344 94.460938 112.828125 94.460938 112.828125 L 95.015625 111.816406 C 95.015625 111.816406 95.082031 112.40625 95.78125 112.488281 C 96.523438 112.578125 96.96875 111.351562 96.96875 111.351562 C 96.96875 111.351562 97.167969 111.996094 97.847656 111.972656 C 98.53125 111.953125 98.792969 111.433594 98.792969 111.433594 C 98.792969 111.433594 99.148438 111.75 99.492188 111.679688 C 100.042969 111.5625 100.578125 110.445312 100.578125 110.445312 C 100.578125 110.445312 101.746094 107.175781 101.691406 103.105469 C 101.691406 103.105469 101.398438 99.097656 97.816406 101.261719 " fill-opacity="1" fill-rule="nonzero"/><path fill="#ef8d72" d="M 99.492188 111.679688 C 99.148438 111.75 98.792969 111.433594 98.792969 111.433594 C 98.792969 111.433594 98.53125 111.953125 97.847656 111.972656 C 97.167969 111.996094 96.96875 111.351562 96.96875 111.351562 C 96.96875 111.351562 96.523438 112.578125 95.78125 112.488281 C 95.082031 112.40625 95.015625 111.816406 95.015625 111.816406 L 94.460938 112.828125 C 94.460938 112.828125 94.214844 113.644531 93.371094 113.410156 C 92.546875 113.183594 92.84375 112.117188 92.84375 112.117188 L 93.566406 109.261719 C 93.570312 109.25 94.355469 106.855469 94.53125 106.789062 L 93.78125 109.671875 C 93.78125 109.671875 94.015625 111.015625 95.164062 110.71875 C 95.164062 110.71875 95.933594 111.578125 96.984375 110.910156 C 96.984375 110.910156 98.140625 111.617188 98.898438 110.878906 C 98.898438 110.878906 99.929688 111.507812 100.617188 110.324219 C 100.59375 110.402344 100.578125 110.445312 100.578125 110.445312 C 100.578125 110.445312 100.042969 111.5625 99.492188 111.679688 " fill-opacity="1" fill-rule="nonzero"/><path fill="#e2a034" d="M 95.375 102.515625 L 101.753906 102.515625 L 102.09375 97.347656 L 95.234375 97.347656 L 95.375 102.515625 " fill-opacity="1" fill-rule="nonzero"/><g clip-path="url(#8521b1e2ed)"><path fill="#f2af36" d="M 99.820312 81.84375 C 97.59375 81.84375 95.636719 80.277344 95.140625 78.105469 C 91.761719 66.773438 87.71875 53.214844 87.652344 52.871094 C 87.070312 49.925781 88.988281 47.054688 91.933594 46.472656 C 92.285156 46.402344 92.640625 46.367188 93 46.367188 C 95.574219 46.367188 97.8125 48.199219 98.328125 50.722656 L 104.539062 76.148438 L 104.546875 76.1875 C 105.007812 78.75 103.308594 81.246094 100.757812 81.753906 C 100.445312 81.8125 100.132812 81.84375 99.820312 81.84375 " fill-opacity="1" fill-rule="nonzero"/></g><g clip-path="url(#1b81d00aeb)"><path fill="#f2af36" d="M 104.476562 77.183594 C 104.480469 77.136719 104.484375 77.074219 104.484375 77.070312 L 104.484375 76.96875 C 104.441406 74.367188 102.285156 72.25 99.683594 72.25 C 97.082031 72.25 94.917969 74.347656 94.824219 76.914062 C 94.703125 77.71875 93.972656 83.195312 94.601562 97.796875 L 102.765625 97.796875 C 103.703125 92.183594 104.976562 83.164062 104.476562 77.183594 " fill-opacity="1" fill-rule="nonzero"/></g><path fill="#faa284" d="M 84.300781 23.128906 C 84.300781 23.128906 87.214844 7.6875 72.660156 7.6875 C 61.730469 7.6875 62.378906 20.132812 62.378906 20.132812 C 62.371094 24.082031 62.289062 30.789062 65.003906 34.792969 C 66.148438 36.480469 67.574219 38.046875 70.019531 38.277344 C 80.554688 39.28125 83.101562 31.023438 83.472656 29.464844 C 83.9375 27.527344 84.300781 23.128906 84.300781 23.128906 " fill-opacity="1" fill-rule="nonzero"/><path fill="#502f26" d="M 68.183594 25.078125 C 68.175781 25.988281 67.625 26.683594 66.949219 26.628906 C 66.277344 26.574219 65.742188 25.792969 65.75 24.882812 C 65.757812 23.972656 66.308594 23.277344 66.984375 23.332031 C 67.65625 23.386719 68.195312 24.167969 68.183594 25.078125 " fill-opacity="1" fill-rule="nonzero"/><path fill="#502f26" d="M 77.425781 24.808594 C 77.414062 25.71875 76.863281 26.414062 76.191406 26.359375 C 75.519531 26.304688 74.980469 25.523438 74.988281 24.613281 C 75 23.703125 75.554688 23.011719 76.226562 23.0625 C 76.898438 23.117188 77.433594 23.898438 77.425781 24.808594 " fill-opacity="1" fill-rule="nonzero"/><path fill="#db7c65" d="M 71.460938 30.242188 C 69.417969 31.070312 68.316406 30.105469 68.234375 29.136719 C 68.179688 28.507812 68.535156 27.949219 69.140625 27.710938 C 70.386719 27.226562 71.265625 25.308594 71.273438 25.289062 C 71.277344 25.730469 70.835938 27.386719 69.253906 28.308594 C 68.914062 28.503906 68.699219 28.714844 68.726562 29.027344 C 68.773438 29.570312 69.554688 30.378906 71.460938 30.242188 " fill-opacity="1" fill-rule="nonzero"/><path fill="#932f14" d="M 64.03125 21.40625 L 63.941406 20.421875 C 64.074219 20.40625 66.183594 19.488281 68.660156 19.820312 L 68.683594 21.363281 C 66.652344 20.886719 64.0625 21.402344 64.03125 21.40625 " fill-opacity="1" fill-rule="nonzero"/><path fill="#932f14" d="M 79.101562 21.527344 C 77.390625 20.792969 74.328125 21.132812 74.296875 21.125 L 74.402344 19.691406 C 74.527344 19.710938 77.300781 19.386719 79.253906 20.640625 L 79.101562 21.527344 " fill-opacity="1" fill-rule="nonzero"/><path fill="#b22828" d="M 75.015625 31.664062 C 75.015625 31.664062 71.167969 32.449219 67.589844 31.664062 C 67.589844 31.664062 68.222656 34.957031 71.300781 34.949219 C 74.207031 34.945312 74.980469 32.300781 75.015625 31.664062 " fill-opacity="1" fill-rule="nonzero"/><path fill="#ffffff" d="M 71.21875 33.234375 C 68.855469 33.234375 68.160156 32.253906 67.859375 31.71875 C 70.636719 32.269531 72.875 31.941406 74.828125 31.699219 C 74.617188 32.292969 73.453125 33.234375 71.21875 33.234375 " fill-opacity="1" fill-rule="nonzero"/><path fill="#faa284" d="M 84.414062 23 C 84.414062 23 83.230469 23.261719 82.820312 26.59375 C 82.40625 29.925781 83.238281 30.199219 83.488281 30.316406 C 83.488281 30.316406 86.503906 31.160156 87.550781 26.164062 C 88.421875 22.015625 84.414062 23 84.414062 23 " fill-opacity="1" fill-rule="nonzero"/><path fill="#db7c65" d="M 83.578125 28.019531 C 83.578125 28.019531 85.777344 26.917969 84.058594 25.8125 C 84.058594 25.8125 84.636719 23.296875 86.109375 23.867188 C 87.578125 24.433594 86.398438 26.792969 86.109375 27.28125 C 85.496094 28.304688 83.578125 29.554688 83.578125 28.019531 " fill-opacity="1" fill-rule="nonzero"/><path fill="#a83916" d="M 78.121094 11.5625 C 78.121094 11.5625 78.105469 16.746094 81.414062 19.066406 C 81.414062 19.066406 83.429688 23.039062 83.40625 24.207031 C 83.40625 24.207031 83.851562 22.796875 85.515625 22.914062 C 85.515625 22.914062 86.355469 19.871094 86.917969 18.636719 C 87.476562 17.402344 88.972656 14.652344 86.46875 12.011719 C 84.546875 9.988281 83.042969 5.386719 79.226562 6.84375 C 79.226562 6.84375 76.195312 2.632812 72.042969 3.699219 C 67.886719 4.769531 68.949219 4.53125 65.136719 5.386719 C 62.371094 6.003906 60.921875 10.160156 61.769531 14.257812 C 62.574219 18.167969 60.816406 21.046875 59.695312 21.527344 C 59.695312 21.527344 63.667969 22.289062 64.851562 18.695312 C 66.035156 15.101562 69.289062 13.757812 70.582031 13.867188 C 71.871094 13.976562 76.796875 13.472656 78.121094 11.5625 " fill-opacity="1" fill-rule="nonzero"/><path fill="#932f14" d="M 83.40625 24.207031 C 83.40625 24.207031 83.851562 22.796875 85.515625 22.914062 C 85.515625 22.914062 85.878906 21.59375 86.289062 20.339844 C 83.78125 20.183594 81.414062 19.066406 81.414062 19.066406 C 81.414062 19.066406 83.429688 23.039062 83.40625 24.207031 " fill-opacity="1" fill-rule="nonzero"/><path fill="#433f4c" d="M 61.527344 13.675781 C 61.527344 13.675781 64.203125 9.296875 72.882812 10.71875 C 81.566406 12.140625 85.703125 18.621094 85.753906 22.078125 C 85.753906 22.078125 87.515625 21.40625 88.347656 14.652344 C 88.347656 14.652344 90.847656 15.4375 90.621094 13.640625 C 90.398438 11.84375 86.015625 4.351562 81.789062 2.859375 C 74.671875 0.339844 69.46875 2.15625 65.796875 4.46875 C 63.167969 6.125 61.433594 6.976562 60.984375 10.160156 C 60.527344 13.382812 61.527344 13.675781 61.527344 13.675781 " fill-opacity="1" fill-rule="nonzero"/><path fill="#35333d" d="M 84.257812 15.25 C 84.113281 15.730469 83.277344 15.761719 82.644531 15.734375 C 84.710938 17.9375 85.730469 20.375 85.753906 22.078125 C 85.753906 22.078125 87.515625 21.40625 88.347656 14.652344 C 88.347656 14.652344 89.835938 15.117188 90.410156 14.503906 C 89.1875 14.441406 88.121094 12.878906 87.027344 12.027344 C 85.683594 10.980469 84.484375 14.5 84.257812 15.25 " fill-opacity="1" fill-rule="nonzero"/></svg>