<svg xmlns="http://www.w3.org/2000/svg" xmlns:xlink="http://www.w3.org/1999/xlink" width="192" zoomAndPan="magnify" viewBox="0 0 144 191.999996" height="256" preserveAspectRatio="xMidYMid meet" version="1.0"><defs><clipPath id="b646ff7b20"><path d="M 75.671875 190.183594 L 100 190.183594 L 100 192 L 75.671875 192 Z M 75.671875 190.183594 " clip-rule="nonzero"/></clipPath><clipPath id="0b8e9c4627"><path d="M 56 190.183594 L 76 190.183594 L 76 192 L 56 192 Z M 56 190.183594 " clip-rule="nonzero"/></clipPath><clipPath id="4a2faf4a11"><path d="M 86.285156 46.128906 L 110.292969 46.128906 L 110.292969 75.242188 L 86.285156 75.242188 Z M 86.285156 46.128906 " clip-rule="nonzero"/></clipPath><clipPath id="5cdf457a3b"><path d="M 88.179688 67.679688 L 110.292969 67.679688 L 110.292969 92.636719 L 88.179688 92.636719 Z M 88.179688 67.679688 " clip-rule="nonzero"/></clipPath></defs><path fill="#faa284" d="M 78.386719 183.605469 L 84.980469 183.605469 L 84.980469 176.121094 L 78.386719 176.121094 L 78.386719 183.605469 " fill-opacity="1" fill-rule="nonzero"/><path fill="#c6823e" d="M 77.15625 144.472656 C 77.230469 141.070312 79.960938 138.804688 82.835938 138.804688 C 85.851562 138.804688 88.515625 141.257812 88.515625 144.472656 C 88.566406 146.050781 86.753906 179.488281 86.753906 179.488281 C 83.9375 180.648438 80.261719 180.441406 76.558594 179.167969 L 77.15625 144.472656 " fill-opacity="1" fill-rule="nonzero"/><path fill="#c6823e" d="M 77.917969 101.824219 C 77.917969 98.414062 80.6875 95.652344 84.101562 95.652344 C 87.515625 95.652344 90.285156 98.414062 90.285156 101.824219 C 90.285156 101.910156 88.59375 142.90625 88.515625 144.472656 C 88.445312 148.0625 85.519531 150.140625 82.835938 150.140625 C 79.898438 150.140625 77.03125 147.714844 77.160156 144.269531 L 77.917969 101.824219 " fill-opacity="1" fill-rule="nonzero"/><path fill="#faa284" d="M 86.042969 182.925781 C 86.042969 182.925781 85.171875 181.523438 81.589844 181.523438 C 78.007812 181.523438 77.703125 183 77.703125 183 L 77.703125 184.742188 L 86.015625 184.742188 L 86.042969 182.925781 " fill-opacity="1" fill-rule="nonzero"/><g clip-path="url(#b646ff7b20)"><path fill="#d0d1d8" d="M 75.886719 192 L 99.992188 192 L 99.992188 190.183594 L 75.886719 190.183594 L 75.886719 192 " fill-opacity="1" fill-rule="nonzero"/></g><path fill="#dcdde5" d="M 99.785156 190.183594 C 99.785156 190.183594 100.902344 185.855469 92.898438 186.519531 L 86.097656 181.730469 C 86.097656 181.730469 85.5625 181.265625 85.058594 181.730469 C 84.558594 182.191406 82.773438 183.882812 80.59375 183.597656 C 78.414062 183.3125 78.359375 181.980469 77.59375 182.089844 C 76.824219 182.195312 75.554688 185.648438 75.769531 190.183594 L 99.785156 190.183594 " fill-opacity="1" fill-rule="nonzero"/><path fill="#cbccd3" d="M 92.898438 186.523438 C 100.902344 185.859375 99.785156 190.183594 99.785156 190.183594 L 92.222656 190.183594 C 92.222656 187.464844 92.898438 186.523438 92.898438 186.523438 " fill-opacity="1" fill-rule="nonzero"/><path fill="#eaebf4" d="M 89.996094 186.988281 C 90.089844 186.988281 90.183594 186.9375 90.238281 186.851562 C 90.757812 186.015625 91.453125 185.617188 91.460938 185.609375 C 91.59375 185.535156 91.644531 185.359375 91.566406 185.222656 C 91.488281 185.085938 91.3125 185.039062 91.175781 185.117188 C 91.140625 185.136719 90.347656 185.59375 89.753906 186.550781 C 89.667969 186.683594 89.710938 186.863281 89.84375 186.945312 C 89.890625 186.972656 89.941406 186.988281 89.996094 186.988281 " fill-opacity="1" fill-rule="nonzero"/><path fill="#eaebf4" d="M 88.828125 186.164062 C 88.925781 186.164062 89.019531 186.113281 89.070312 186.027344 C 89.59375 185.191406 90.285156 184.792969 90.292969 184.789062 C 90.429688 184.710938 90.476562 184.535156 90.398438 184.398438 C 90.320312 184.261719 90.144531 184.214844 90.007812 184.292969 C 89.976562 184.3125 89.183594 184.769531 88.585938 185.726562 C 88.503906 185.859375 88.542969 186.035156 88.679688 186.121094 C 88.726562 186.148438 88.777344 186.164062 88.828125 186.164062 " fill-opacity="1" fill-rule="nonzero"/><path fill="#eaebf4" d="M 87.660156 185.339844 C 87.757812 185.339844 87.851562 185.292969 87.90625 185.203125 C 88.425781 184.367188 89.117188 183.96875 89.125 183.964844 C 89.261719 183.886719 89.3125 183.710938 89.234375 183.574219 C 89.152344 183.4375 88.980469 183.390625 88.84375 183.46875 C 88.808594 183.488281 88.015625 183.945312 87.417969 184.902344 C 87.335938 185.039062 87.378906 185.214844 87.511719 185.296875 C 87.558594 185.324219 87.609375 185.339844 87.660156 185.339844 " fill-opacity="1" fill-rule="nonzero"/><path fill="#eaebf4" d="M 86.496094 184.515625 C 86.589844 184.515625 86.683594 184.46875 86.738281 184.378906 C 87.257812 183.542969 87.953125 183.144531 87.960938 183.140625 C 88.097656 183.0625 88.144531 182.886719 88.066406 182.75 C 87.988281 182.613281 87.8125 182.570312 87.675781 182.644531 C 87.640625 182.664062 86.847656 183.121094 86.253906 184.078125 C 86.167969 184.214844 86.210938 184.390625 86.34375 184.472656 C 86.394531 184.5 86.445312 184.515625 86.496094 184.515625 " fill-opacity="1" fill-rule="nonzero"/><path fill="#faa284" d="M 58.371094 183.441406 L 64.964844 183.628906 L 65.179688 176.148438 L 58.585938 175.957031 L 58.371094 183.441406 " fill-opacity="1" fill-rule="nonzero"/><path fill="#c6823e" d="M 58.371094 144.292969 C 58.542969 140.890625 61.335938 138.707031 64.210938 138.789062 C 67.226562 138.878906 69.820312 141.402344 69.726562 144.617188 C 69.730469 146.195312 66.957031 179.566406 66.957031 179.566406 C 64.113281 180.644531 60.441406 180.335938 56.777344 178.957031 L 58.371094 144.292969 " fill-opacity="1" fill-rule="nonzero"/><path fill="#c6823e" d="M 60.359375 101.679688 C 60.457031 98.277344 63.304688 95.59375 66.71875 95.691406 C 70.128906 95.789062 72.820312 98.628906 72.722656 102.035156 C 72.71875 102.121094 69.847656 143.050781 69.726562 144.617188 C 69.550781 148.199219 66.570312 150.195312 63.886719 150.117188 C 60.949219 150.03125 58.152344 147.527344 58.382812 144.085938 L 60.359375 101.679688 " fill-opacity="1" fill-rule="nonzero"/><path fill="#faa284" d="M 66.484375 182.925781 C 66.484375 182.925781 65.613281 181.523438 62.03125 181.523438 C 58.449219 181.523438 58.144531 183 58.144531 183 L 58.144531 184.742188 L 66.457031 184.742188 L 66.484375 182.925781 " fill-opacity="1" fill-rule="nonzero"/><g clip-path="url(#0b8e9c4627)"><path fill="#d0d1d8" d="M 56.097656 192 L 75.886719 192 L 75.886719 190.183594 L 56.097656 190.183594 L 56.097656 192 " fill-opacity="1" fill-rule="nonzero"/></g><path fill="#dcdde5" d="M 75.777344 190.183594 C 75.777344 190.183594 76.195312 186.515625 71.566406 186.417969 L 65.960938 181.507812 C 65.960938 181.507812 64.949219 180.742188 63.621094 181.5 C 62.636719 182.066406 62.492188 183.703125 60.695312 183.414062 C 58.902344 183.121094 58.855469 181.773438 58.222656 181.882812 C 57.589844 181.992188 55.8125 185.195312 55.992188 190.183594 L 75.777344 190.183594 " fill-opacity="1" fill-rule="nonzero"/><path fill="#cbccd3" d="M 71.566406 186.441406 C 76.195312 186.535156 75.777344 190.183594 75.777344 190.183594 L 68.007812 190.183594 C 68 186.554688 71.566406 186.441406 71.566406 186.441406 " fill-opacity="1" fill-rule="nonzero"/><path fill="#eaebf4" d="M 68.027344 187.003906 C 68.109375 187.003906 68.1875 186.972656 68.242188 186.914062 C 69.265625 185.824219 70.699219 185.796875 70.714844 185.796875 C 70.875 185.792969 71.007812 185.660156 71.003906 185.5 C 71.003906 185.339844 70.867188 185.207031 70.707031 185.210938 C 70.640625 185.210938 69.007812 185.246094 67.816406 186.511719 C 67.707031 186.628906 67.710938 186.816406 67.828125 186.925781 C 67.886719 186.976562 67.957031 187.003906 68.027344 187.003906 " fill-opacity="1" fill-rule="nonzero"/><path fill="#eaebf4" d="M 66.859375 185.984375 C 66.9375 185.984375 67.015625 185.953125 67.074219 185.890625 C 68.097656 184.804688 69.53125 184.773438 69.546875 184.773438 C 69.707031 184.773438 69.835938 184.6875 69.832031 184.527344 C 69.832031 184.367188 69.703125 184.285156 69.542969 184.285156 C 69.539062 184.285156 69.539062 184.285156 69.539062 184.285156 C 69.46875 184.285156 67.839844 184.269531 66.644531 185.539062 C 66.535156 185.65625 66.542969 185.816406 66.660156 185.925781 C 66.714844 185.980469 66.789062 185.984375 66.859375 185.984375 " fill-opacity="1" fill-rule="nonzero"/><path fill="#eaebf4" d="M 65.691406 184.960938 C 65.765625 184.960938 65.84375 184.929688 65.902344 184.867188 C 66.925781 183.78125 68.359375 183.753906 68.375 183.75 C 68.535156 183.75 68.664062 183.609375 68.664062 183.449219 C 68.664062 183.289062 68.53125 183.152344 68.371094 183.152344 C 68.371094 183.152344 68.371094 183.152344 68.367188 183.152344 C 68.300781 183.152344 66.667969 183.195312 65.476562 184.460938 C 65.367188 184.578125 65.371094 184.769531 65.488281 184.878906 C 65.546875 184.929688 65.617188 184.960938 65.691406 184.960938 " fill-opacity="1" fill-rule="nonzero"/><path fill="#eaebf4" d="M 64.519531 183.9375 C 64.597656 183.9375 64.675781 183.90625 64.734375 183.847656 C 65.757812 182.757812 67.191406 182.730469 67.203125 182.730469 C 67.367188 182.730469 67.496094 182.648438 67.496094 182.484375 C 67.492188 182.324219 67.359375 182.246094 67.203125 182.246094 C 67.199219 182.246094 67.199219 182.246094 67.199219 182.246094 C 67.128906 182.246094 65.5 182.230469 64.308594 183.496094 C 64.195312 183.613281 64.203125 183.773438 64.320312 183.886719 C 64.375 183.9375 64.449219 183.9375 64.519531 183.9375 " fill-opacity="1" fill-rule="nonzero"/><path fill="#c6823e" d="M 60.421875 92.179688 L 90.335938 92.179688 L 90.21875 102.773438 C 90.136719 106.621094 86.992188 109.738281 83.148438 109.871094 L 67.441406 109.984375 C 63.519531 109.875 60.421875 106.613281 60.421875 102.671875 C 60.421875 102.457031 60.421875 92.179688 60.421875 92.179688 " fill-opacity="1" fill-rule="nonzero"/><path fill="#aa6b33" d="M 65.207031 92.863281 C 65.582031 94.429688 66.09375 98.765625 60.960938 100.542969 C 60.960938 100.542969 60.355469 95.699219 60.847656 92.863281 L 65.207031 92.863281 " fill-opacity="1" fill-rule="nonzero"/><path fill="#e2a77a" d="M 60.867188 101.792969 C 63.394531 101.007812 65.121094 99.6875 66 97.875 C 66.898438 96.007812 66.691406 94.019531 66.441406 92.863281 L 66.910156 92.863281 C 67.171875 94.089844 67.347656 96.117188 66.410156 98.066406 C 65.570312 99.8125 64.007812 101.121094 61.753906 101.96875 C 61.511719 102.058594 61.261719 102.144531 61.003906 102.226562 C 60.882812 102.261719 60.753906 102.195312 60.714844 102.078125 C 60.679688 101.957031 60.746094 101.828125 60.867188 101.792969 " fill-opacity="1" fill-rule="nonzero"/><path fill="#aa6b33" d="M 72.910156 109.058594 C 72.949219 109.058594 72.992188 109.046875 73.03125 109.023438 C 73.136719 108.957031 73.167969 108.816406 73.101562 108.710938 C 73.078125 108.679688 71.015625 105.5 68.003906 103.371094 C 67.898438 103.296875 67.757812 103.320312 67.683594 103.421875 C 67.613281 103.527344 67.636719 103.667969 67.738281 103.738281 C 70.679688 105.816406 72.699219 108.925781 72.71875 108.957031 C 72.761719 109.023438 72.835938 109.058594 72.910156 109.058594 " fill-opacity="1" fill-rule="nonzero"/><path fill="#aa6b33" d="M 71.566406 108.601562 C 71.632812 108.601562 71.699219 108.574219 71.742188 108.519531 C 71.824219 108.421875 71.808594 108.28125 71.710938 108.199219 C 71.671875 108.167969 67.742188 105.003906 62.738281 104.09375 C 62.613281 104.074219 62.496094 104.15625 62.472656 104.277344 C 62.449219 104.398438 62.53125 104.519531 62.65625 104.539062 C 67.542969 105.429688 71.382812 108.519531 71.421875 108.550781 C 71.464844 108.585938 71.515625 108.601562 71.566406 108.601562 " fill-opacity="1" fill-rule="nonzero"/><path fill="#aa6b33" d="M 71.792969 109.488281 C 71.902344 109.488281 71.996094 109.414062 72.019531 109.304688 C 72.042969 109.183594 71.960938 109.0625 71.835938 109.039062 C 71.636719 109 66.875 108.078125 64.355469 108.609375 C 64.234375 108.636719 64.15625 108.757812 64.179688 108.882812 C 64.207031 109.003906 64.328125 109.082031 64.449219 109.054688 C 66.878906 108.539062 71.699219 109.472656 71.75 109.484375 C 71.765625 109.488281 71.78125 109.488281 71.792969 109.488281 " fill-opacity="1" fill-rule="nonzero"/><path fill="#aa6b33" d="M 77.480469 109.058594 C 77.4375 109.058594 77.394531 109.046875 77.355469 109.023438 C 77.25 108.957031 77.21875 108.816406 77.289062 108.710938 C 77.308594 108.679688 79.371094 105.5 82.386719 103.371094 C 82.488281 103.296875 82.628906 103.320312 82.703125 103.421875 C 82.777344 103.527344 82.75 103.667969 82.648438 103.738281 C 79.707031 105.816406 77.691406 108.925781 77.671875 108.957031 C 77.628906 109.023438 77.554688 109.058594 77.480469 109.058594 " fill-opacity="1" fill-rule="nonzero"/><path fill="#aa6b33" d="M 78.824219 108.601562 C 78.757812 108.601562 78.691406 108.574219 78.644531 108.519531 C 78.566406 108.421875 78.582031 108.28125 78.675781 108.199219 C 78.71875 108.167969 82.648438 105.003906 87.648438 104.09375 C 87.773438 104.074219 87.894531 104.15625 87.914062 104.277344 C 87.9375 104.398438 87.855469 104.519531 87.730469 104.539062 C 82.84375 105.429688 79.003906 108.519531 78.964844 108.550781 C 78.921875 108.585938 78.871094 108.601562 78.824219 108.601562 " fill-opacity="1" fill-rule="nonzero"/><path fill="#aa6b33" d="M 78.59375 109.488281 C 78.488281 109.488281 78.394531 109.414062 78.371094 109.304688 C 78.347656 109.183594 78.425781 109.0625 78.550781 109.039062 C 78.75 109 83.515625 108.078125 86.03125 108.609375 C 86.15625 108.636719 86.234375 108.757812 86.207031 108.882812 C 86.183594 109.003906 86.058594 109.082031 85.9375 109.054688 C 83.511719 108.539062 78.6875 109.472656 78.640625 109.484375 C 78.625 109.488281 78.609375 109.488281 78.59375 109.488281 " fill-opacity="1" fill-rule="nonzero"/><path fill="#e2a77a" d="M 74.925781 109.421875 C 75.023438 109.421875 75.113281 109.359375 75.144531 109.261719 C 77.011719 103.171875 76.636719 93.234375 76.632812 93.136719 C 76.628906 93.011719 76.523438 92.914062 76.398438 92.917969 C 76.269531 92.925781 76.171875 93.027344 76.179688 93.15625 C 76.183594 93.253906 76.554688 103.113281 74.710938 109.128906 C 74.675781 109.25 74.742188 109.375 74.859375 109.414062 C 74.882812 109.417969 74.90625 109.421875 74.925781 109.421875 " fill-opacity="1" fill-rule="nonzero"/><path fill="#e2a77a" d="M 76.441406 105.792969 C 76.441406 105.792969 76.441406 105.792969 76.445312 105.792969 C 76.46875 105.792969 78.609375 105.742188 79.40625 103.308594 C 80.167969 100.992188 79.921875 93.757812 79.910156 93.449219 C 79.90625 93.324219 79.796875 93.230469 79.675781 93.234375 C 79.550781 93.242188 79.453125 93.347656 79.457031 93.472656 C 79.460938 93.546875 79.710938 100.945312 78.976562 103.1875 C 78.277344 105.316406 76.453125 105.375 76.4375 105.375 C 76.3125 105.378906 76.210938 105.464844 76.214844 105.589844 C 76.214844 105.714844 76.316406 105.792969 76.441406 105.792969 " fill-opacity="1" fill-rule="nonzero"/><path fill="#aa6b33" d="M 90.050781 92.863281 L 89.878906 99.214844 C 89.878906 99.214844 87.453125 96.53125 87.300781 93.144531 L 90.050781 92.863281 " fill-opacity="1" fill-rule="nonzero"/><path fill="#e2a77a" d="M 89.652344 100.769531 C 89.726562 100.769531 89.800781 100.730469 89.84375 100.664062 C 89.914062 100.558594 89.882812 100.421875 89.777344 100.351562 C 86.46875 98.214844 86.167969 93.183594 86.164062 93.132812 C 86.160156 93.007812 86.046875 92.914062 85.925781 92.917969 C 85.800781 92.925781 85.703125 93.03125 85.710938 93.15625 C 85.722656 93.371094 86.023438 98.46875 89.527344 100.730469 C 89.566406 100.757812 89.609375 100.769531 89.652344 100.769531 " fill-opacity="1" fill-rule="nonzero"/><path fill="#faa284" d="M 69.515625 43.179688 L 78.839844 43.179688 L 78.839844 32.289062 L 69.515625 32.289062 L 69.515625 43.179688 " fill-opacity="1" fill-rule="nonzero"/><path fill="#ef8d72" d="M 69.515625 36.941406 L 69.515625 32.289062 L 78.839844 32.289062 L 78.839844 39.550781 C 77.25 39.742188 71.792969 40.117188 69.515625 36.941406 " fill-opacity="1" fill-rule="nonzero"/><path fill="#faa284" d="M 80.015625 42.1875 C 80.015625 42.1875 74.527344 40.910156 67.992188 42.1875 C 67.992188 42.1875 71.722656 55.015625 76.613281 55.015625 C 81.503906 55.015625 80.015625 42.1875 80.015625 42.1875 " fill-opacity="1" fill-rule="nonzero"/><path fill="#22466d" d="M 50.367188 49.226562 C 51.300781 45.863281 54.265625 45.332031 54.265625 45.332031 C 54.265625 45.332031 62.105469 43.15625 68.574219 41.75 L 76.808594 49.871094 C 78.457031 46.640625 79.367188 41.75 79.367188 41.75 C 82.308594 42.210938 89.746094 43.949219 92.679688 45.316406 C 92.679688 45.316406 95.765625 46.34375 96.058594 49.863281 C 96.058594 49.863281 96.101562 51.445312 92.761719 53.632812 C 92.558594 57.335938 92.078125 62.460938 91.058594 69.359375 C 89.980469 76.664062 90.207031 79.882812 90.285156 88.890625 C 90.558594 89.230469 90.914062 90.183594 91.167969 90.570312 C 91.664062 91.324219 90.355469 92.75 90.355469 92.75 C 90.355469 92.75 81.265625 96.828125 60.1875 92.820312 C 59.449219 91.984375 59.066406 91.3125 58.988281 90.78125 C 58.949219 90.496094 59.441406 89.664062 59.902344 88.964844 C 60.042969 84.78125 60.175781 77.871094 59.5 72.152344 C 58.65625 65.019531 55.871094 58.066406 55.417969 54.234375 C 49.503906 51.757812 50.367188 49.226562 50.367188 49.226562 " fill-opacity="1" fill-rule="nonzero"/><path fill="#395c7c" d="M 78.738281 38.527344 C 78.738281 38.527344 79.554688 38.382812 81.808594 41.75 C 81.808594 41.75 82.375 45.183594 82.488281 48.8125 C 82.488281 48.8125 81.390625 47.792969 80.367188 47.234375 L 77.300781 48.804688 C 77.300781 48.804688 78.460938 43.949219 78.6875 41.5 C 78.6875 41.5 78.738281 39.300781 78.738281 38.527344 " fill-opacity="1" fill-rule="nonzero"/><path fill="#395c7c" d="M 69.410156 38.226562 L 69.527344 41.023438 C 69.980469 42.207031 73.804688 46.527344 75.5625 48.652344 C 75.5625 48.652344 72.570312 47.382812 71.648438 47.339844 C 71.648438 47.339844 69.742188 48.542969 69.070312 49.078125 C 69.070312 49.078125 67.367188 46.128906 65.964844 41.820312 C 65.964844 41.820312 68.273438 38.453125 69.410156 38.226562 " fill-opacity="1" fill-rule="nonzero"/><path fill="#183854" d="M 78.089844 94.222656 C 78.214844 94.222656 78.316406 94.179688 78.316406 94.058594 C 78.921875 61.941406 77.140625 50.253906 77.121094 50.136719 C 77.105469 50.015625 76.988281 49.945312 76.863281 49.964844 C 76.738281 49.984375 76.652344 50.105469 76.675781 50.230469 C 76.691406 50.34375 78.46875 61.980469 77.863281 94.046875 C 77.859375 94.167969 77.960938 94.222656 78.085938 94.222656 C 78.085938 94.222656 78.089844 94.222656 78.089844 94.222656 " fill-opacity="1" fill-rule="nonzero"/><path fill="#395c7c" d="M 82.535156 65.5 L 85.988281 67.570312 L 89.632812 65.523438 L 89.660156 58.277344 L 82.5625 58.25 L 82.535156 65.5 " fill-opacity="1" fill-rule="nonzero"/><path fill="#486f8c" d="M 82.554688 60.5 L 82.5625 58.25 L 89.660156 58.277344 L 89.648438 60.539062 L 86.195312 61.660156 L 82.554688 60.5 " fill-opacity="1" fill-rule="nonzero"/><path fill="#395c7c" d="M 64 66.226562 L 68.105469 68.132812 L 72.171875 65.765625 L 71.75 58.269531 L 63.574219 58.730469 L 64 66.226562 " fill-opacity="1" fill-rule="nonzero"/><path fill="#486f8c" d="M 63.707031 61.058594 L 63.574219 58.730469 L 71.75 58.269531 L 71.882812 60.609375 L 67.972656 62.003906 L 63.707031 61.058594 " fill-opacity="1" fill-rule="nonzero"/><path fill="#486f8c" d="M 74.464844 50.816406 C 74.464844 50.34375 74.851562 49.960938 75.324219 49.960938 C 75.800781 49.960938 76.183594 50.34375 76.183594 50.816406 C 76.183594 51.289062 75.800781 51.671875 75.324219 51.671875 C 74.851562 51.671875 74.464844 51.289062 74.464844 50.816406 " fill-opacity="1" fill-rule="nonzero"/><path fill="#486f8c" d="M 75.378906 59.4375 C 75.378906 58.964844 75.761719 58.582031 76.234375 58.582031 C 76.707031 58.582031 77.09375 58.964844 77.09375 59.4375 C 77.09375 59.910156 76.707031 60.292969 76.234375 60.292969 C 75.761719 60.292969 75.378906 59.910156 75.378906 59.4375 " fill-opacity="1" fill-rule="nonzero"/><path fill="#486f8c" d="M 75.605469 67.605469 C 75.605469 67.132812 75.988281 66.75 76.460938 66.75 C 76.9375 66.75 77.320312 67.132812 77.320312 67.605469 C 77.320312 68.078125 76.9375 68.460938 76.460938 68.460938 C 75.988281 68.460938 75.605469 68.078125 75.605469 67.605469 " fill-opacity="1" fill-rule="nonzero"/><path fill="#486f8c" d="M 75.605469 75.769531 C 75.605469 75.296875 75.988281 74.914062 76.460938 74.914062 C 76.9375 74.914062 77.320312 75.296875 77.320312 75.769531 C 77.320312 76.246094 76.9375 76.628906 76.460938 76.628906 C 75.988281 76.628906 75.605469 76.246094 75.605469 75.769531 " fill-opacity="1" fill-rule="nonzero"/><path fill="#486f8c" d="M 75.605469 83.484375 C 75.605469 83.011719 75.988281 82.628906 76.460938 82.628906 C 76.9375 82.628906 77.320312 83.011719 77.320312 83.484375 C 77.320312 83.957031 76.9375 84.339844 76.460938 84.339844 C 75.988281 84.339844 75.605469 83.957031 75.605469 83.484375 " fill-opacity="1" fill-rule="nonzero"/><path fill="#486f8c" d="M 75.605469 91.425781 C 75.605469 90.953125 75.988281 90.570312 76.460938 90.570312 C 76.9375 90.570312 77.320312 90.953125 77.320312 91.425781 C 77.320312 91.898438 76.9375 92.28125 76.460938 92.28125 C 75.988281 92.28125 75.605469 91.898438 75.605469 91.425781 " fill-opacity="1" fill-rule="nonzero"/><path fill="#e2a77a" d="M 86.898438 176.765625 C 86.898438 176.765625 87.324219 176.875 87.082031 177.800781 C 86.84375 178.726562 87.285156 179.441406 86.773438 179.792969 C 86.261719 180.144531 82.394531 181.488281 76.671875 179.523438 C 76.671875 179.523438 76.007812 179.238281 76.425781 177.914062 C 76.597656 177.367188 76.132812 176.703125 76.609375 176.308594 C 76.609375 176.308594 82.890625 178.296875 86.898438 176.765625 " fill-opacity="1" fill-rule="nonzero"/><path fill="#e2a77a" d="M 67.167969 176.710938 C 67.167969 176.710938 67.585938 176.835938 67.316406 177.757812 C 67.046875 178.671875 67.460938 179.398438 66.9375 179.734375 C 66.414062 180.070312 62.507812 181.285156 56.851562 179.125 C 56.851562 179.125 56.199219 178.820312 56.660156 177.511719 C 56.847656 176.96875 56.410156 176.292969 56.898438 175.910156 C 56.898438 175.910156 63.109375 178.109375 67.167969 176.710938 " fill-opacity="1" fill-rule="nonzero"/><path fill="#faa284" d="M 64.441406 21.683594 C 64.441406 21.683594 61.492188 6.089844 76.234375 6.089844 C 87.300781 6.089844 86.644531 18.660156 86.644531 18.660156 C 86.652344 22.644531 86.734375 29.417969 83.988281 33.464844 C 82.828125 35.167969 81.382812 36.75 78.90625 36.984375 C 68.238281 38 65.660156 29.65625 65.28125 28.085938 C 64.8125 26.125 64.441406 21.683594 64.441406 21.683594 " fill-opacity="1" fill-rule="nonzero"/><path fill="#502f26" d="M 80.765625 23.652344 C 80.777344 24.570312 81.332031 25.273438 82.015625 25.21875 C 82.695312 25.164062 83.242188 24.375 83.230469 23.457031 C 83.222656 22.535156 82.664062 21.835938 81.980469 21.890625 C 81.300781 21.941406 80.757812 22.734375 80.765625 23.652344 " fill-opacity="1" fill-rule="nonzero"/><path fill="#502f26" d="M 71.40625 23.382812 C 71.414062 24.300781 71.976562 25 72.65625 24.949219 C 73.335938 24.894531 73.882812 24.101562 73.871094 23.183594 C 73.863281 22.265625 73.304688 21.5625 72.625 21.617188 C 71.941406 21.671875 71.398438 22.460938 71.40625 23.382812 " fill-opacity="1" fill-rule="nonzero"/><path fill="#db7c65" d="M 77.445312 28.867188 C 79.519531 29.703125 80.636719 28.730469 80.71875 27.753906 C 80.773438 27.117188 80.410156 26.554688 79.796875 26.3125 C 78.535156 25.820312 77.648438 23.886719 77.636719 23.867188 C 77.632812 24.3125 78.082031 25.984375 79.683594 26.914062 C 80.027344 27.113281 80.242188 27.324219 80.21875 27.640625 C 80.171875 28.1875 79.378906 29.007812 77.445312 28.867188 " fill-opacity="1" fill-rule="nonzero"/><path fill="#89493d" d="M 84.972656 19.945312 L 85.066406 18.949219 C 84.929688 18.933594 82.792969 18.007812 80.285156 18.34375 L 80.261719 19.902344 C 82.316406 19.417969 84.941406 19.9375 84.972656 19.945312 " fill-opacity="1" fill-rule="nonzero"/><path fill="#89493d" d="M 69.707031 20.066406 C 71.441406 19.324219 74.542969 19.664062 74.574219 19.660156 L 74.464844 18.214844 C 74.34375 18.234375 71.53125 17.90625 69.558594 19.171875 L 69.707031 20.066406 " fill-opacity="1" fill-rule="nonzero"/><path fill="#b22828" d="M 73.847656 30.304688 C 73.847656 30.304688 77.746094 31.097656 81.367188 30.304688 C 81.367188 30.304688 80.726562 33.628906 77.609375 33.621094 C 74.667969 33.617188 73.882812 30.945312 73.847656 30.304688 " fill-opacity="1" fill-rule="nonzero"/><path fill="#ffffff" d="M 77.691406 31.890625 C 80.089844 31.890625 80.792969 30.902344 81.09375 30.359375 C 78.28125 30.914062 76.015625 30.582031 74.039062 30.339844 C 74.25 30.9375 75.433594 31.890625 77.691406 31.890625 " fill-opacity="1" fill-rule="nonzero"/><path fill="#faa284" d="M 64.328125 21.554688 C 64.328125 21.554688 65.527344 21.816406 65.945312 25.183594 C 66.363281 28.546875 65.519531 28.824219 65.265625 28.941406 C 65.265625 28.941406 62.210938 29.792969 61.148438 24.746094 C 60.269531 20.558594 64.328125 21.554688 64.328125 21.554688 " fill-opacity="1" fill-rule="nonzero"/><path fill="#db7c65" d="M 65.175781 26.625 C 65.175781 26.625 62.949219 25.511719 64.6875 24.394531 C 64.6875 24.394531 64.101562 21.851562 62.613281 22.425781 C 61.125 23.003906 62.316406 25.386719 62.613281 25.878906 C 63.234375 26.910156 65.175781 28.171875 65.175781 26.625 " fill-opacity="1" fill-rule="nonzero"/><path fill="#893626" d="M 86.652344 20.71875 C 86.652344 20.71875 87.152344 15.425781 87.074219 12.929688 C 87.074219 12.929688 92.304688 9.300781 88.894531 4.765625 C 88.894531 4.765625 88.855469 5.578125 88.6875 6.144531 C 88.6875 6.144531 88.0625 2.058594 84.648438 0.757812 C 84.648438 0.757812 84.375 3.023438 82.664062 3.476562 C 80.953125 3.933594 66.058594 0 64.199219 8.921875 C 64.199219 8.921875 61.359375 10.398438 61.878906 14.40625 C 62.398438 18.414062 63.003906 21.46875 63.003906 21.46875 C 63.003906 21.46875 65.261719 21.355469 65.832031 23.554688 C 65.832031 23.554688 66.722656 18.800781 67.101562 18.1875 C 68.164062 16.464844 68.445312 14.3125 68.539062 11.644531 C 68.539062 11.644531 81.214844 14.785156 85.851562 13.195312 C 85.851562 13.195312 86.613281 17.164062 86.652344 20.71875 " fill-opacity="1" fill-rule="nonzero"/><path fill="#7a2c21" d="M 86.652344 20.71875 C 86.613281 17.164062 85.851562 13.195312 85.851562 13.195312 L 87.074219 12.929688 C 87.152344 15.425781 86.652344 20.71875 86.652344 20.71875 " fill-opacity="1" fill-rule="nonzero"/><path fill="#7a2c21" d="M 68.539062 11.644531 C 68.445312 14.3125 68.164062 16.464844 67.101562 18.1875 C 66.722656 18.800781 65.832031 23.554688 65.832031 23.554688 C 65.261719 21.355469 63.003906 21.46875 63.003906 21.46875 C 63.003906 21.46875 62.785156 20.34375 62.492188 18.5625 C 67.8125 17.417969 68.539062 11.644531 68.539062 11.644531 " fill-opacity="1" fill-rule="nonzero"/><path fill="#9b4135" d="M 84.648438 0.757812 C 88.0625 2.058594 88.6875 6.144531 88.6875 6.144531 C 88.855469 5.578125 88.894531 4.765625 88.894531 4.765625 C 89.433594 5.484375 89.757812 6.179688 89.917969 6.839844 C 87.746094 8.167969 82.15625 10.566406 72.484375 8.316406 C 72.484375 8.316406 81.753906 6.714844 82.957031 3.375 C 84.40625 2.757812 84.648438 0.757812 84.648438 0.757812 " fill-opacity="1" fill-rule="nonzero"/><path fill="#faa284" d="M 52.289062 48.203125 C 53.722656 46.371094 56.378906 46.046875 58.21875 47.476562 C 60.058594 48.910156 60.382812 51.5625 58.945312 53.394531 C 58.71875 53.683594 40.710938 72.679688 40.710938 72.679688 C 39.484375 74.1875 37.269531 74.445312 35.730469 73.246094 C 34.191406 72.046875 33.90625 69.839844 35.078125 68.289062 L 52.289062 48.203125 " fill-opacity="1" fill-rule="nonzero"/><path fill="#faa284" d="M 35.542969 73.074219 C 34.132812 71.734375 34.054688 69.511719 35.378906 68.078125 C 36.699219 66.644531 38.976562 66.5 40.433594 67.789062 C 40.433594 67.789062 45.839844 71.289062 59.480469 85.316406 L 56.390625 88.664062 C 56.390625 88.664062 41.800781 79.84375 35.730469 73.238281 C 35.691406 73.195312 35.542969 73.074219 35.542969 73.074219 " fill-opacity="1" fill-rule="nonzero"/><path fill="#22466d" d="M 40.085938 60.328125 L 51.273438 47.304688 C 53.148438 44.9375 56.609375 44.523438 58.996094 46.386719 C 61.386719 48.257812 61.8125 51.722656 59.9375 54.113281 C 59.769531 54.320312 54.0625 60.339844 47.722656 67.019531 C 45.753906 65.570312 42.523438 63.027344 40.085938 60.328125 " fill-opacity="1" fill-rule="nonzero"/><path fill="#486f8c" d="M 49.003906 65.710938 C 49.003906 65.710938 44.75 62.929688 41.128906 59.171875 C 41.128906 59.171875 40.445312 59.125 40.195312 59.75 C 39.945312 60.378906 38.199219 61.351562 38.558594 62.105469 C 38.558594 62.105469 42.789062 66.84375 46.582031 68.546875 C 46.582031 68.546875 47.449219 68.480469 48.035156 67.335938 C 48.621094 66.195312 49.289062 66.210938 49.003906 65.710938 " fill-opacity="1" fill-rule="nonzero"/><g clip-path="url(#4a2faf4a11)"><path fill="#faa284" d="M 94.238281 48.167969 C 92.957031 46.222656 90.335938 45.683594 88.386719 46.960938 C 86.4375 48.238281 85.894531 50.851562 87.175781 52.796875 C 87.375 53.101562 103.765625 73.503906 103.765625 73.503906 C 104.863281 75.109375 107.046875 75.550781 108.679688 74.480469 C 110.3125 73.410156 110.777344 71.234375 109.738281 69.59375 L 94.238281 48.167969 " fill-opacity="1" fill-rule="nonzero"/></g><g clip-path="url(#5cdf457a3b)"><path fill="#faa284" d="M 109.613281 73.566406 C 110.730469 71.976562 110.371094 69.785156 108.789062 68.636719 C 107.210938 67.488281 104.949219 67.792969 103.777344 69.34375 C 103.777344 69.34375 99.164062 73.835938 88.558594 90.265625 L 92.003906 92.578125 C 92.003906 92.578125 104.8125 81.433594 109.460938 73.765625 C 109.492188 73.714844 109.613281 73.566406 109.613281 73.566406 " fill-opacity="1" fill-rule="nonzero"/></g><path fill="#22466d" d="M 105.242188 61.324219 L 95.21875 47.390625 C 93.550781 44.871094 90.140625 44.164062 87.605469 45.816406 C 85.058594 47.472656 84.335938 50.886719 86 53.429688 C 86.148438 53.652344 91.3125 60.140625 97.058594 67.335938 C 99.144531 66.058594 102.578125 63.804688 105.242188 61.324219 " fill-opacity="1" fill-rule="nonzero"/><path fill="#486f8c" d="M 95.804688 65.796875 C 95.804688 65.796875 100.265625 63.351562 104.164062 59.878906 C 104.164062 59.878906 104.851562 59.890625 105.050781 60.535156 C 105.253906 61.175781 106.917969 62.28125 106.5 63.007812 C 106.5 63.007812 101.914062 67.40625 98.003906 68.808594 C 98.003906 68.808594 97.144531 68.675781 96.648438 67.492188 C 96.152344 66.304688 95.484375 66.269531 95.804688 65.796875 " fill-opacity="1" fill-rule="nonzero"/><path fill="#faa284" d="M 55.613281 86.210938 C 56.324219 84.171875 57.40625 84.496094 57.40625 84.496094 L 58.96875 84.570312 C 60.328125 83.894531 61.050781 82.808594 61.753906 82.589844 C 63.015625 82.195312 63.433594 80.96875 63.699219 81.074219 C 64.277344 81.292969 64.417969 81.824219 64.164062 82.3125 C 63.804688 83.011719 62.949219 83.660156 62.949219 83.660156 C 63.5 83.460938 65.789062 82.769531 66.601562 82.667969 C 67.300781 82.578125 69.328125 83.78125 69.570312 83.917969 C 69.871094 84.085938 70.300781 84.378906 70.160156 84.667969 C 69.925781 85.152344 69.351562 85.140625 68.914062 85.015625 C 68.433594 84.875 67.335938 84.09375 66.9375 84.195312 C 66.710938 84.257812 65.304688 84.675781 65.195312 84.71875 C 65.195312 84.71875 66.925781 85.390625 67.667969 85.652344 C 68.527344 85.953125 70.328125 86.691406 70.328125 86.691406 C 71.742188 87.578125 69.988281 88.132812 69.988281 88.132812 C 70.09375 88.21875 70.449219 88.535156 70.335938 88.804688 C 70.132812 89.3125 69.394531 89.316406 69.210938 89.308594 C 68.648438 89.285156 66.910156 88.722656 66.863281 88.730469 C 66.863281 88.726562 64.34375 88.804688 64.34375 88.804688 C 65.101562 89.394531 65.546875 89.71875 66.488281 90.363281 C 66.644531 90.472656 67.660156 91.097656 67.730469 91.253906 C 67.820312 91.441406 67.742188 91.605469 67.570312 91.691406 C 67.214844 91.867188 66.78125 91.851562 66.378906 91.714844 C 66.183594 91.652344 65.410156 91.296875 64.996094 91.054688 C 63.359375 90.101562 62.445312 89.804688 60.953125 90.886719 C 58.800781 92.449219 56.429688 89.253906 56.429688 89.253906 C 56.429688 89.253906 54.902344 88.25 55.613281 86.210938 " fill-opacity="1" fill-rule="nonzero"/><path fill="#ef8d72" d="M 62.949219 83.660156 L 61.796875 84.078125 C 61.796875 84.078125 61.667969 83.8125 62.949219 83.660156 " fill-opacity="1" fill-rule="nonzero"/><path fill="#ef8d72" d="M 69.988281 88.132812 C 69.988281 88.132812 67.628906 87.304688 67.089844 87.160156 C 66.546875 87.011719 63.898438 87.058594 64.113281 86.480469 C 64.113281 86.480469 64.910156 85.785156 69.988281 88.132812 " fill-opacity="1" fill-rule="nonzero"/><path fill="#ef8d72" d="M 65.195312 84.71875 C 65.195312 84.71875 63.867188 84.527344 64.1875 84.394531 C 64.503906 84.261719 64.933594 84.617188 65.195312 84.71875 " fill-opacity="1" fill-rule="nonzero"/><path fill="#ef8d72" d="M 89.660156 84.050781 C 89.660156 84.050781 89.105469 82.257812 89.933594 81.746094 C 90.71875 81.261719 91.269531 84.636719 91.269531 84.636719 L 89.660156 84.050781 " fill-opacity="1" fill-rule="nonzero"/><path fill="#faa284" d="M 83.09375 86.980469 C 83.183594 86.917969 85.855469 85.574219 86.246094 85.488281 C 86.476562 85.4375 88.445312 85.238281 88.457031 85.230469 L 86.972656 84.796875 C 86.355469 84.621094 85.21875 85.574219 84.355469 85.347656 C 83.566406 85.140625 83.632812 84.566406 83.929688 84.449219 C 85.945312 83.65625 86.445312 83.222656 87.160156 83.285156 C 88.335938 83.394531 88.96875 83.621094 89.425781 83.695312 C 90.382812 83.851562 90.730469 83.703125 91.128906 84.355469 C 91.160156 84.410156 92.277344 86.425781 92.953125 90.640625 C 93.265625 92.617188 91.042969 93.21875 91.042969 93.21875 C 89.175781 93.703125 89.230469 91.609375 88.488281 90.949219 C 88.175781 90.667969 86.765625 91.828125 86.304688 92.09375 C 85.84375 92.355469 85.199219 92.5625 84.953125 92.414062 C 84.382812 92.070312 84.621094 91.8125 84.890625 91.597656 C 85.308594 91.269531 88.203125 89.238281 88.203125 89.238281 C 88.1875 89.128906 88.15625 89.042969 88.136719 88.9375 C 88.136719 88.9375 86.664062 89.417969 85.964844 89.730469 C 85.328125 90.019531 84.210938 90.519531 83.644531 90.171875 C 83.128906 89.855469 83.371094 89.4375 83.550781 89.273438 C 83.882812 88.964844 87.890625 87.175781 87.890625 87.175781 C 87.890625 87.175781 87.296875 86.742188 86.472656 86.933594 C 85.914062 87.066406 85.011719 87.390625 84.726562 87.53125 C 84.34375 87.722656 83.425781 88.148438 83.058594 87.707031 C 82.800781 87.394531 82.914062 87.109375 83.09375 86.980469 " fill-opacity="1" fill-rule="nonzero"/><path fill="#ef8d72" d="M 88.339844 90.90625 C 88.339844 90.90625 89.054688 90.402344 89.191406 90.367188 C 89.324219 90.332031 89.414062 90.515625 88.339844 90.90625 " fill-opacity="1" fill-rule="nonzero"/><path fill="#ef8d72" d="M 88.863281 91.394531 C 88.863281 91.394531 90.027344 91.226562 90.15625 91.101562 C 90.292969 90.976562 90.789062 91.554688 88.863281 91.394531 " fill-opacity="1" fill-rule="nonzero"/><path fill="#ef8d72" d="M 88.203125 89.238281 C 88.203125 89.238281 89.644531 88.546875 89.550781 88.292969 C 89.421875 87.953125 88.492188 88.683594 88.136719 88.9375 L 88.203125 89.238281 " fill-opacity="1" fill-rule="nonzero"/><path fill="#ef8d72" d="M 87.890625 87.175781 C 87.890625 87.175781 89.503906 86.867188 89.453125 86.480469 C 89.402344 86.097656 87.890625 87.175781 87.890625 87.175781 " fill-opacity="1" fill-rule="nonzero"/><path fill="#ef8d72" d="M 88.457031 85.230469 C 88.457031 85.230469 89.664062 84.960938 89.746094 84.730469 C 89.832031 84.5 89.28125 84.699219 88.457031 85.230469 " fill-opacity="1" fill-rule="nonzero"/></svg>