<svg xmlns="http://www.w3.org/2000/svg" xmlns:xlink="http://www.w3.org/1999/xlink" width="150" zoomAndPan="magnify" viewBox="0 0 112.5 112.499997" height="150" preserveAspectRatio="xMidYMid meet" version="1.0"><defs><clipPath id="3708b38ceb"><path d="M 0 37.03125 L 112.003906 37.03125 L 112.003906 75 L 0 75 Z M 0 37.03125 " clip-rule="nonzero"/></clipPath></defs><g clip-path="url(#3708b38ceb)"><path fill="#ffffff" d="M 0.867188 58.046875 C 1.15625 57.0625 1.683594 56.171875 2.398438 55.445312 L 3.707031 54.410156 L 4.960938 53.773438 C 5.265625 53.652344 5.585938 53.554688 5.914062 53.480469 C 6.894531 53.261719 8.675781 53.164062 11.253906 53.523438 C 11.269531 53.527344 11.292969 53.53125 11.308594 53.535156 C 13.105469 53.804688 18.539062 54.195312 27.632812 54.734375 C 27.644531 54.734375 27.660156 54.734375 27.671875 54.738281 C 30.25 54.90625 34.902344 55.003906 41.640625 55.046875 C 41.644531 55.046875 41.972656 55.050781 42.132812 55.050781 C 41.367188 54.183594 40.703125 53.214844 40.164062 52.152344 C 39.027344 49.980469 39.304688 47.351562 40.863281 45.460938 C 43.78125 41.910156 45.398438 40.011719 45.679688 39.730469 C 47.921875 37.484375 51.515625 37.335938 53.9375 39.390625 C 54.132812 39.554688 54.335938 39.722656 54.539062 39.890625 L 54.773438 39.640625 C 56.980469 37.328125 60.601562 37.109375 63.070312 39.140625 C 65.503906 41.144531 67.320312 42.589844 68.527344 43.46875 C 69.949219 44.507812 70.855469 46.105469 71.011719 47.855469 C 71.167969 49.605469 70.5625 51.339844 69.347656 52.613281 C 68.410156 53.597656 67.578125 54.472656 66.855469 55.234375 C 71.375 55.191406 75.679688 55.046875 79.765625 54.800781 C 79.773438 54.800781 79.78125 54.800781 79.789062 54.796875 C 84.144531 54.550781 87.234375 54.328125 89.066406 54.121094 C 92.207031 53.730469 94.921875 53.15625 97.203125 52.363281 C 98.21875 51.992188 98.933594 51.117188 99.558594 49.96875 L 99.253906 50.621094 L 100.234375 48.933594 L 101.878906 47.472656 L 103.40625 46.769531 L 105.433594 46.460938 L 108.085938 47 L 110.113281 48.371094 L 111.484375 50.398438 L 112.019531 53.046875 C 112.019531 53.476562 111.976562 53.898438 111.886719 54.316406 C 111.097656 58.027344 109.390625 61.445312 106.710938 64.539062 C 103.816406 67.9375 100.507812 70.125 96.867188 71.242188 C 89.292969 73.566406 78.441406 74.742188 64.300781 74.605469 C 58.707031 74.566406 53.035156 74.605469 47.289062 74.734375 C 47.285156 74.734375 47.28125 74.734375 47.273438 74.734375 C 40.691406 74.863281 36.449219 74.929688 34.53125 74.929688 C 31.347656 74.929688 27.949219 74.863281 24.355469 74.734375 C 19.25 74.558594 14.796875 74.351562 11.015625 74.113281 C 10.84375 74.097656 10.671875 74.082031 10.5 74.058594 C 7.921875 73.675781 5.929688 72.738281 4.40625 71.484375 L 3.125 70.222656 L 2.082031 68.753906 L 0.824219 65.523438 L 0.867188 65.722656 C 0.0078125 62.351562 0.242188 59.789062 0.867188 58.046875 Z M 0.867188 58.046875 " fill-opacity="1" fill-rule="evenodd"/></g><path fill="#ffffff" d="M 60.0625 53.566406 C 58.46875 52.8125 56.683594 51.554688 54.703125 49.789062 L 51.382812 53.628906 C 48.648438 52.960938 46.710938 51.53125 45.570312 49.335938 C 48.261719 46.066406 49.734375 44.304688 49.992188 44.042969 C 51.542969 45.355469 53.285156 46.679688 55.222656 48.011719 L 59.191406 43.851562 C 61.75 45.960938 63.664062 47.476562 64.933594 48.402344 C 62.699219 50.746094 61.074219 52.464844 60.0625 53.566406 Z M 95.074219 65.410156 C 87.933594 67.601562 77.691406 68.636719 64.355469 68.503906 C 58.695312 68.464844 52.960938 68.503906 47.152344 68.636719 C 40.640625 68.765625 36.421875 68.828125 34.53125 68.828125 C 31.414062 68.828125 28.09375 68.765625 24.566406 68.636719 C 19.53125 68.464844 15.140625 68.257812 11.398438 68.023438 C 8.796875 67.632812 7.25 66.367188 6.785156 64.214844 C 6.285156 62.277344 6.246094 60.867188 6.65625 59.988281 L 6.722656 59.761719 C 6.839844 59.628906 7.023438 59.523438 7.238281 59.4375 C 7.816406 59.308594 8.863281 59.351562 10.394531 59.566406 C 12.246094 59.847656 17.878906 60.265625 27.273438 60.824219 C 29.917969 60.996094 34.691406 61.105469 41.601562 61.148438 C 50.101562 61.214844 54.746094 61.246094 55.542969 61.246094 C 64.449219 61.460938 72.648438 61.339844 80.136719 60.890625 C 84.675781 60.632812 87.890625 60.394531 89.78125 60.179688 C 93.441406 59.730469 96.59375 59.039062 99.238281 58.113281 C 101.585938 57.273438 103.476562 55.53125 104.917969 52.886719 C 105.003906 52.671875 105.175781 52.5625 105.433594 52.5625 C 105.757812 52.5625 105.917969 52.726562 105.917969 53.046875 C 105.339844 55.78125 104.058594 58.285156 102.078125 60.566406 C 100.015625 63 97.679688 64.613281 95.074219 65.410156 Z M 95.074219 65.410156 " fill-opacity="1" fill-rule="nonzero"/><path fill="#7ed957" d="M 60.625 53.792969 C 59.035156 53.039062 57.25 51.78125 55.269531 50.015625 L 51.945312 53.855469 C 49.214844 53.1875 47.277344 51.757812 46.136719 49.5625 C 48.828125 46.292969 50.300781 44.53125 50.558594 44.269531 C 52.105469 45.582031 53.847656 46.90625 55.785156 48.242188 L 59.753906 44.078125 C 62.316406 46.1875 64.230469 47.703125 65.5 48.628906 C 63.261719 50.972656 61.636719 52.695312 60.625 53.792969 Z M 95.640625 65.636719 C 88.5 67.828125 78.257812 68.863281 64.917969 68.734375 C 59.261719 68.691406 53.527344 68.734375 47.71875 68.863281 C 41.203125 68.992188 36.988281 69.054688 35.097656 69.054688 C 31.976562 69.054688 28.660156 68.992188 25.128906 68.863281 C 20.09375 68.691406 15.707031 68.484375 11.964844 68.25 C 9.359375 67.863281 7.8125 66.59375 7.351562 64.441406 C 6.847656 62.503906 6.808594 61.09375 7.21875 60.214844 L 7.285156 59.988281 C 7.40625 59.859375 7.589844 59.75 7.800781 59.664062 C 8.382812 59.535156 9.425781 59.578125 10.960938 59.792969 C 12.8125 60.074219 18.441406 60.492188 27.839844 61.054688 C 30.484375 61.226562 35.253906 61.332031 42.167969 61.375 C 50.664062 61.441406 55.3125 61.472656 56.109375 61.472656 C 65.015625 61.6875 73.210938 61.566406 80.699219 61.117188 C 85.238281 60.859375 88.453125 60.621094 90.347656 60.40625 C 94.003906 59.957031 97.15625 59.265625 99.804688 58.339844 C 102.148438 57.503906 104.042969 55.761719 105.484375 53.113281 C 105.570312 52.898438 105.742188 52.792969 106 52.792969 C 106.320312 52.792969 106.484375 52.953125 106.484375 53.273438 C 105.902344 56.007812 104.625 58.511719 102.644531 60.792969 C 100.578125 63.226562 98.242188 64.839844 95.640625 65.636719 Z M 95.640625 65.636719 " fill-opacity="1" fill-rule="nonzero"/><path fill="#ffffff" d="M 51.34375 52.3125 C 51.621094 51.945312 50.300781 50.753906 50.246094 49.714844 C 50.179688 48.414062 51.5 47.257812 50.832031 46.730469 C 50.53125 46.496094 48.21875 48.546875 48.699219 50.394531 C 49.058594 51.773438 51.074219 52.660156 51.34375 52.3125 Z M 51.34375 52.3125 " fill-opacity="0.25" fill-rule="evenodd"/><path fill="#ffffff" d="M 60.503906 51.429688 C 60.210938 50.558594 58.59375 49.796875 59.347656 48.078125 C 60.074219 46.433594 59.378906 46.46875 59.257812 46.496094 C 58.800781 46.597656 56.613281 49.007812 57.78125 50.628906 C 58.601562 51.773438 60.761719 52.1875 60.503906 51.429688 Z M 60.503906 51.429688 " fill-opacity="0.25" fill-rule="evenodd"/><path fill="#ffffff" d="M 15.128906 67.605469 C 6.679688 66.152344 10.113281 60.519531 12.242188 61.070312 C 12.691406 61.1875 12.304688 61.648438 12.996094 62.433594 C 14.074219 63.667969 18.699219 66.300781 18.695312 67.019531 C 18.691406 67.613281 16.175781 67.785156 15.128906 67.605469 Z M 15.128906 67.605469 " fill-opacity="0.25" fill-rule="evenodd"/><path fill="#ffffff" d="M 21.398438 67.304688 C 23.628906 68.058594 25.03125 65.796875 23.332031 64.964844 C 20.972656 63.8125 19.878906 66.789062 21.398438 67.304688 Z M 21.398438 67.304688 " fill-opacity="0.25" fill-rule="evenodd"/></svg>