<svg xmlns="http://www.w3.org/2000/svg" xmlns:xlink="http://www.w3.org/1999/xlink" width="192" zoomAndPan="magnify" viewBox="0 0 144 191.999996" height="256" preserveAspectRatio="xMidYMid meet" version="1.0"><defs><clipPath id="6d0f2fa419"><path d="M 51.054688 189.785156 L 72.734375 189.785156 L 72.734375 191.480469 L 51.054688 191.480469 Z M 51.054688 189.785156 " clip-rule="nonzero"/></clipPath><clipPath id="65aad6093a"><path d="M 71.320312 189.785156 L 84.988281 189.785156 L 84.988281 191.480469 L 71.320312 191.480469 Z M 71.320312 189.785156 " clip-rule="nonzero"/></clipPath><clipPath id="e4f10fb460"><path d="M 59.539062 0.507812 L 93.640625 0.507812 L 93.640625 50.195312 L 59.539062 50.195312 Z M 59.539062 0.507812 " clip-rule="nonzero"/></clipPath></defs><path fill="#932d12" d="M 64.265625 50.019531 C 64.265625 50.019531 72.164062 51.332031 79.230469 50.007812 C 86.300781 48.683594 88.109375 43.027344 88.109375 38.179688 C 88.109375 33.328125 87.609375 23.238281 87.609375 23.238281 L 62.554688 24.144531 C 62.554688 24.144531 56.4375 45.546875 64.265625 50.019531 " fill-opacity="1" fill-rule="nonzero"/><path fill="#5e8c9e" d="M 72.238281 140.285156 L 72.230469 140.082031 C 72.648438 127.597656 72.351562 98.472656 72.351562 98.429688 C 72.472656 93.890625 68.910156 90.101562 64.386719 89.976562 C 59.867188 89.855469 56.128906 93.371094 56.003906 97.910156 C 56.003906 97.953125 56.019531 98.035156 56.019531 98.035156 C 57.320312 111.367188 58.757812 121.570312 61.921875 141.300781 L 61.945312 141.484375 C 62.296875 143.953125 64.375 145.910156 66.9375 145.980469 C 69.800781 146.058594 72.183594 143.808594 72.261719 140.933594 C 72.269531 140.710938 72.261719 140.503906 72.238281 140.285156 " fill-opacity="1" fill-rule="nonzero"/><path fill="#faa284" d="M 64.78125 182.980469 L 70.648438 183.039062 C 70.835938 181.136719 71.164062 176.101562 71.511719 173.5 L 64.460938 173.5 C 64.597656 176.101562 64.710938 181.003906 64.78125 182.980469 " fill-opacity="1" fill-rule="nonzero"/><path fill="#5e8c9e" d="M 72.277344 140.363281 C 72.277344 140.355469 72.226562 140.171875 72.214844 140.085938 C 71.875 137.609375 69.792969 135.671875 67.222656 135.601562 C 64.359375 135.523438 61.976562 137.792969 61.898438 140.664062 C 61.890625 140.964844 62.003906 141.964844 62.039062 142.152344 C 62.765625 145.917969 63.871094 161.90625 64.460938 173.5 L 71.511719 173.5 C 71.957031 169.949219 72.4375 166.84375 72.703125 165.375 C 75.6875 148.882812 72.359375 140.894531 72.277344 140.363281 " fill-opacity="1" fill-rule="nonzero"/><path fill="#7eb0bc" d="M 64.414062 171.257812 C 64.414062 171.257812 63.777344 171.386719 63.949219 172.355469 C 64.121094 173.324219 63.761719 174.0625 64.15625 174.4375 C 64.558594 174.8125 67.84375 175.753906 71.703125 174.429688 C 71.703125 174.429688 72.273438 174.132812 71.96875 172.742188 C 71.84375 172.167969 72.5 171.53125 71.863281 170.925781 C 71.863281 170.925781 68.367188 172.417969 64.414062 171.257812 " fill-opacity="1" fill-rule="nonzero"/><path fill="#5e8c9e" d="M 87.527344 140.148438 L 87.53125 139.941406 C 88.605469 127.5 89.835938 98.398438 89.839844 98.355469 C 90.199219 93.832031 86.839844 89.855469 82.332031 89.492188 C 77.824219 89.128906 73.871094 92.585938 73.511719 97.109375 L 73.496094 97.316406 C 74.101562 110.5625 75.046875 120.859375 77.171875 140.730469 L 77.1875 140.859375 C 77.40625 143.34375 79.378906 145.378906 81.9375 145.582031 C 84.789062 145.8125 87.289062 143.675781 87.519531 140.808594 C 87.535156 140.585938 87.535156 140.367188 87.527344 140.148438 " fill-opacity="1" fill-rule="nonzero"/><path fill="#5e8c9e" d="M 87.5625 140.226562 C 87.5625 140.222656 87.519531 140.035156 87.515625 139.945312 C 87.300781 137.457031 85.324219 135.414062 82.761719 135.207031 C 79.910156 134.976562 77.410156 137.113281 77.183594 139.980469 C 77.160156 140.277344 77.222656 141.28125 77.246094 141.472656 C 77.777344 145.308594 77.972656 161.90625 77.929688 173.5 L 85.019531 173.5 C 85.65625 169.949219 86.324219 166.707031 86.675781 165.226562 C 90.523438 148.914062 87.617188 140.757812 87.5625 140.226562 " fill-opacity="1" fill-rule="nonzero"/><path fill="#faa284" d="M 77.863281 182.675781 L 83.816406 182.804688 C 84.09375 180.960938 84.546875 175.863281 85.019531 173.5 L 77.929688 173.5 C 77.917969 176.101562 77.898438 180.777344 77.863281 182.675781 " fill-opacity="1" fill-rule="nonzero"/><path fill="#7eb0bc" d="M 77.925781 171.097656 C 77.925781 171.097656 77.285156 171.195312 77.414062 172.171875 C 77.542969 173.148438 77.148438 173.867188 77.527344 174.261719 C 77.910156 174.652344 81.152344 175.746094 85.0625 174.597656 C 85.0625 174.597656 85.648438 174.324219 85.40625 172.925781 C 85.308594 172.34375 85.992188 171.738281 85.382812 171.101562 C 85.382812 171.101562 81.824219 172.4375 77.925781 171.097656 " fill-opacity="1" fill-rule="nonzero"/><path fill="#faa284" d="M 63.523438 183.40625 C 63.523438 183.40625 64.339844 182.113281 67.558594 182.113281 C 70.78125 182.113281 71.085938 183.429688 71.085938 183.429688 L 71.085938 185.09375 L 63.546875 185.09375 L 63.523438 183.40625 " fill-opacity="1" fill-rule="nonzero"/><g clip-path="url(#6d0f2fa419)"><path fill="#d0d1d8" d="M 72.734375 191.480469 L 51.054688 191.480469 L 51.054688 189.824219 L 72.734375 189.824219 L 72.734375 191.480469 " fill-opacity="1" fill-rule="nonzero"/></g><path fill="#dcdde5" d="M 51.164062 189.824219 C 51.164062 189.824219 50.160156 185.957031 57.355469 186.5625 L 63.472656 182.25 C 63.472656 182.25 63.957031 181.84375 64.40625 182.265625 C 64.855469 182.683594 66.460938 184.222656 68.421875 183.960938 C 70.382812 183.707031 70.429688 182.449219 71.121094 182.546875 C 71.8125 182.644531 72.953125 185.800781 72.761719 189.824219 L 51.164062 189.824219 " fill-opacity="1" fill-rule="nonzero"/><path fill="#cbccd3" d="M 57.355469 186.511719 C 50.160156 185.910156 51.164062 189.824219 51.164062 189.824219 L 57.964844 189.824219 C 57.960938 187.457031 57.355469 186.511719 57.355469 186.511719 " fill-opacity="1" fill-rule="nonzero"/><path fill="#eaebf4" d="M 59.96875 187.035156 C 59.882812 187.035156 59.796875 186.992188 59.75 186.914062 C 59.28125 186.160156 58.660156 185.792969 58.652344 185.792969 C 58.527344 185.71875 58.484375 185.5625 58.554688 185.441406 C 58.625 185.316406 58.785156 185.269531 58.90625 185.34375 C 58.9375 185.359375 59.648438 185.777344 60.183594 186.640625 C 60.261719 186.761719 60.222656 186.921875 60.105469 186.996094 C 60.0625 187.023438 60.011719 187.035156 59.96875 187.035156 " fill-opacity="1" fill-rule="nonzero"/><path fill="#eaebf4" d="M 61.015625 186.289062 C 60.929688 186.289062 60.847656 186.246094 60.796875 186.167969 C 60.332031 185.410156 59.707031 185.050781 59.699219 185.046875 C 59.578125 184.976562 59.535156 184.816406 59.605469 184.695312 C 59.675781 184.570312 59.832031 184.527344 59.957031 184.597656 C 59.984375 184.613281 60.699219 185.027344 61.234375 185.894531 C 61.308594 186.019531 61.273438 186.175781 61.152344 186.253906 C 61.109375 186.277344 61.0625 186.289062 61.015625 186.289062 " fill-opacity="1" fill-rule="nonzero"/><path fill="#eaebf4" d="M 62.066406 185.542969 C 61.980469 185.542969 61.898438 185.503906 61.847656 185.421875 C 61.378906 184.667969 60.753906 184.304688 60.75 184.300781 C 60.625 184.230469 60.585938 184.070312 60.652344 183.949219 C 60.722656 183.824219 60.878906 183.78125 61.003906 183.851562 C 61.035156 183.867188 61.746094 184.285156 62.285156 185.152344 C 62.359375 185.269531 62.320312 185.429688 62.199219 185.507812 C 62.160156 185.53125 62.113281 185.542969 62.066406 185.542969 " fill-opacity="1" fill-rule="nonzero"/><path fill="#eaebf4" d="M 63.117188 184.796875 C 63.027344 184.796875 62.945312 184.753906 62.898438 184.679688 C 62.429688 183.921875 61.804688 183.558594 61.800781 183.554688 C 61.675781 183.484375 61.632812 183.328125 61.703125 183.199219 C 61.773438 183.078125 61.929688 183.035156 62.054688 183.105469 C 62.085938 183.121094 62.796875 183.539062 63.332031 184.40625 C 63.410156 184.523438 63.371094 184.683594 63.25 184.757812 C 63.207031 184.785156 63.160156 184.796875 63.117188 184.796875 " fill-opacity="1" fill-rule="nonzero"/><path fill="#faa284" d="M 76.496094 183.40625 C 76.496094 183.40625 77.304688 182.113281 80.527344 182.113281 C 83.746094 182.113281 84.046875 183.429688 84.046875 183.429688 L 84.046875 185.09375 L 76.523438 185.09375 L 76.496094 183.40625 " fill-opacity="1" fill-rule="nonzero"/><g clip-path="url(#65aad6093a)"><path fill="#d0d1d8" d="M 84.988281 191.480469 L 71.320312 191.480469 L 71.320312 189.824219 L 84.988281 189.824219 L 84.988281 191.480469 " fill-opacity="1" fill-rule="nonzero"/></g><path fill="#dcdde5" d="M 71.496094 189.824219 C 71.496094 189.824219 70.890625 187.160156 73.582031 186.550781 L 76.871094 182.21875 C 76.871094 182.21875 78.09375 181.078125 79.96875 182.234375 C 80.402344 182.503906 81.398438 184.207031 82.644531 183.949219 C 83.890625 183.6875 83.5 182.410156 83.9375 182.511719 C 84.378906 182.609375 85.105469 185.328125 84.980469 189.824219 L 71.496094 189.824219 " fill-opacity="1" fill-rule="nonzero"/><path fill="#cbccd3" d="M 73.582031 186.488281 C 70.890625 187.097656 71.496094 189.824219 71.496094 189.824219 L 78.601562 189.824219 C 78.421875 185.800781 73.582031 186.488281 73.582031 186.488281 " fill-opacity="1" fill-rule="nonzero"/><path fill="#eaebf4" d="M 77.253906 186.265625 L 77.144531 186.242188 C 75.527344 185.515625 74.449219 185.839844 74.441406 185.84375 C 74.304688 185.886719 74.160156 185.8125 74.117188 185.675781 C 74.074219 185.539062 74.148438 185.394531 74.28125 185.347656 C 74.332031 185.332031 75.539062 184.957031 77.359375 185.769531 C 77.488281 185.824219 77.546875 185.980469 77.488281 186.113281 C 77.445312 186.207031 77.351562 186.265625 77.253906 186.265625 " fill-opacity="1" fill-rule="nonzero"/><path fill="#eaebf4" d="M 77.898438 185.355469 L 77.792969 185.335938 C 76.171875 184.609375 75.097656 184.929688 75.085938 184.933594 C 74.953125 184.976562 74.804688 184.902344 74.761719 184.765625 C 74.71875 184.628906 74.792969 184.484375 74.929688 184.441406 C 74.980469 184.421875 76.1875 184.046875 78.003906 184.859375 C 78.132812 184.917969 78.191406 185.070312 78.136719 185.203125 C 78.09375 185.300781 78 185.355469 77.898438 185.355469 " fill-opacity="1" fill-rule="nonzero"/><path fill="#eaebf4" d="M 78.410156 184.617188 L 78.296875 184.589844 C 76.679688 183.8125 75.617188 184.113281 75.605469 184.117188 C 75.464844 184.160156 75.324219 184.078125 75.28125 183.941406 C 75.242188 183.804688 75.320312 183.660156 75.460938 183.617188 C 75.507812 183.605469 76.726562 183.261719 78.519531 184.121094 C 78.648438 184.183594 78.703125 184.339844 78.640625 184.46875 C 78.597656 184.5625 78.507812 184.617188 78.410156 184.617188 " fill-opacity="1" fill-rule="nonzero"/><path fill="#eaebf4" d="M 79.050781 183.734375 L 78.933594 183.707031 C 77.332031 182.898438 76.261719 183.179688 76.25 183.183594 C 76.113281 183.222656 75.972656 183.140625 75.933594 183 C 75.894531 182.863281 75.976562 182.71875 76.113281 182.683594 C 76.164062 182.667969 77.390625 182.347656 79.167969 183.238281 C 79.292969 183.304688 79.347656 183.460938 79.28125 183.589844 C 79.238281 183.679688 79.144531 183.734375 79.050781 183.734375 " fill-opacity="1" fill-rule="nonzero"/><path fill="#dd9833" d="M 54.210938 75.460938 C 52.113281 74.789062 50.914062 72.523438 51.535156 70.402344 C 52.796875 64.605469 56.871094 45.808594 56.980469 45.472656 C 57.769531 42.988281 60.421875 41.617188 62.890625 42.40625 C 65.359375 43.199219 66.722656 45.851562 65.945312 48.324219 L 59.328125 72.847656 L 59.316406 72.871094 C 58.609375 74.972656 56.320312 76.136719 54.210938 75.460938 " fill-opacity="1" fill-rule="nonzero"/><path fill="#5e8c9e" d="M 89.992188 97.578125 C 89.996094 97.289062 89.9375 96.710938 89.902344 96.492188 C 89.875 96.222656 89.832031 95.964844 89.773438 95.703125 C 88.070312 86.316406 83.160156 78.164062 83.160156 78.164062 L 62.414062 78.28125 C 62.414062 78.28125 56.882812 84.679688 56.003906 95.609375 C 55.9375 96.039062 56.003906 97.910156 56.003906 97.910156 C 56.136719 102.101562 59.25 105.328125 63.253906 105.753906 L 81.949219 105.773438 C 86.375 105.621094 89.945312 102.046875 89.992188 97.578125 " fill-opacity="1" fill-rule="nonzero"/><path fill="#7eb0bc" d="M 73.191406 105.441406 C 73.097656 105.441406 73.011719 105.386719 72.972656 105.296875 C 72.964844 105.277344 71.929688 102.867188 70.683594 97.753906 C 69.433594 92.621094 70.625 81.148438 70.679688 80.664062 C 70.691406 80.53125 70.8125 80.4375 70.9375 80.453125 C 71.066406 80.464844 71.160156 80.582031 71.148438 80.710938 C 71.136719 80.832031 69.910156 92.589844 71.140625 97.640625 C 72.378906 102.707031 73.398438 105.085938 73.40625 105.109375 C 73.457031 105.230469 73.402344 105.371094 73.285156 105.421875 L 73.191406 105.441406 " fill-opacity="1" fill-rule="nonzero"/><path fill="#7eb0bc" d="M 71.070312 101.121094 L 71.035156 101.117188 C 68.671875 100.761719 67.835938 97.929688 67.800781 97.808594 C 66.253906 93.023438 67.785156 80.894531 67.851562 80.378906 C 67.867188 80.25 67.984375 80.160156 68.117188 80.175781 C 68.246094 80.191406 68.335938 80.3125 68.316406 80.441406 C 68.300781 80.566406 66.734375 92.976562 68.25 97.667969 C 68.261719 97.703125 69.046875 100.339844 71.105469 100.648438 C 71.234375 100.667969 71.324219 100.789062 71.300781 100.917969 C 71.285156 101.035156 71.183594 101.121094 71.070312 101.121094 " fill-opacity="1" fill-rule="nonzero"/><path fill="#7eb0bc" d="M 71.785156 84.300781 C 64.960938 84.300781 60.90625 82.191406 60.847656 82.15625 C 60.730469 82.09375 60.6875 81.953125 60.75 81.835938 C 60.8125 81.722656 60.953125 81.679688 61.070312 81.738281 C 61.15625 81.789062 70.09375 86.425781 83.855469 81.726562 C 83.980469 81.683594 84.113281 81.75 84.15625 81.871094 C 84.195312 81.996094 84.128906 82.132812 84.007812 82.175781 C 79.339844 83.765625 75.210938 84.300781 71.785156 84.300781 " fill-opacity="1" fill-rule="nonzero"/><path fill="#7eb0bc" d="M 70.183594 82.066406 C 70.183594 81.527344 69.746094 81.089844 69.210938 81.089844 C 68.671875 81.089844 68.238281 81.527344 68.238281 82.066406 C 68.238281 82.605469 68.671875 83.042969 69.210938 83.042969 C 69.746094 83.042969 70.183594 82.605469 70.183594 82.066406 " fill-opacity="1" fill-rule="nonzero"/><path fill="#4a7582" d="M 78.925781 84.078125 C 78.925781 84.078125 78.972656 90.828125 85.902344 90.648438 C 85.902344 90.648438 84.699219 85.617188 83.164062 83.042969 C 83.164062 83.042969 80.21875 84.019531 78.925781 84.078125 " fill-opacity="1" fill-rule="nonzero"/><path fill="#4a7582" d="M 61.527344 83.015625 C 61.527344 83.015625 60.78125 86.800781 57.796875 87.746094 C 57.796875 87.746094 58.992188 83.992188 60.015625 82.261719 C 60.015625 82.261719 60.703125 82.660156 61.527344 83.015625 " fill-opacity="1" fill-rule="nonzero"/><path fill="#7eb0bc" d="M 85.652344 92.328125 C 83.160156 92.332031 81.167969 91.625 79.710938 90.226562 C 77.195312 87.808594 77.214844 84.21875 77.214844 84.070312 C 77.21875 83.941406 77.324219 83.828125 77.453125 83.828125 C 77.585938 83.828125 77.6875 83.945312 77.6875 84.078125 C 77.6875 84.113281 77.671875 87.613281 80.042969 89.886719 C 81.554688 91.335938 83.710938 91.992188 86.453125 91.832031 C 86.582031 91.824219 86.691406 91.925781 86.699219 92.054688 C 86.707031 92.183594 86.609375 92.296875 86.480469 92.304688 C 86.199219 92.320312 85.921875 92.328125 85.652344 92.328125 " fill-opacity="1" fill-rule="nonzero"/><path fill="#7eb0bc" d="M 57.511719 89.222656 C 57.40625 89.222656 57.308594 89.152344 57.28125 89.046875 C 57.25 88.921875 57.324219 88.792969 57.453125 88.757812 C 61.726562 87.660156 62.367188 83.292969 62.375 83.25 C 62.390625 83.117188 62.507812 83.027344 62.640625 83.046875 C 62.769531 83.0625 62.859375 83.183594 62.839844 83.3125 C 62.835938 83.359375 62.148438 88.039062 57.570312 89.214844 L 57.511719 89.222656 " fill-opacity="1" fill-rule="nonzero"/><path fill="#4a7582" d="M 74.351562 104.996094 C 74.308594 104.996094 74.265625 104.980469 74.226562 104.957031 C 74.117188 104.886719 74.085938 104.738281 74.152344 104.628906 C 74.175781 104.597656 76.3125 101.28125 79.4375 99.058594 C 79.542969 98.984375 79.691406 99.007812 79.765625 99.117188 C 79.839844 99.222656 79.816406 99.371094 79.707031 99.445312 C 76.660156 101.613281 74.570312 104.851562 74.550781 104.886719 C 74.503906 104.957031 74.429688 104.996094 74.351562 104.996094 " fill-opacity="1" fill-rule="nonzero"/><path fill="#4a7582" d="M 75.746094 104.519531 C 75.675781 104.519531 75.605469 104.488281 75.5625 104.429688 C 75.480469 104.328125 75.492188 104.179688 75.59375 104.097656 C 75.632812 104.066406 79.707031 100.761719 84.890625 99.816406 C 85.019531 99.792969 85.144531 99.878906 85.164062 100.007812 C 85.1875 100.136719 85.105469 100.257812 84.976562 100.28125 C 79.910156 101.207031 75.933594 104.433594 75.890625 104.464844 C 75.847656 104.5 75.796875 104.519531 75.746094 104.519531 " fill-opacity="1" fill-rule="nonzero"/><path fill="#4a7582" d="M 75.507812 105.441406 C 75.398438 105.441406 75.300781 105.363281 75.277344 105.25 C 75.25 105.121094 75.335938 104.996094 75.464844 104.972656 C 75.671875 104.929688 80.605469 103.96875 83.214844 104.527344 C 83.34375 104.554688 83.421875 104.679688 83.394531 104.808594 C 83.371094 104.9375 83.242188 105.015625 83.117188 104.988281 C 80.601562 104.453125 75.601562 105.425781 75.554688 105.4375 L 75.507812 105.441406 " fill-opacity="1" fill-rule="nonzero"/><path fill="#4a7582" d="M 70.324219 104.996094 C 70.246094 104.996094 70.171875 104.957031 70.125 104.886719 C 70.105469 104.851562 68.015625 101.613281 64.96875 99.445312 C 64.859375 99.371094 64.835938 99.222656 64.910156 99.117188 C 64.984375 99.007812 65.132812 98.984375 65.238281 99.058594 C 68.363281 101.28125 70.5 104.597656 70.523438 104.628906 C 70.59375 104.738281 70.5625 104.886719 70.453125 104.957031 C 70.410156 104.980469 70.367188 104.996094 70.324219 104.996094 " fill-opacity="1" fill-rule="nonzero"/><path fill="#4a7582" d="M 68.933594 104.519531 C 68.878906 104.519531 68.828125 104.5 68.785156 104.464844 C 68.742188 104.433594 64.761719 101.207031 59.699219 100.28125 C 59.570312 100.257812 59.488281 100.136719 59.511719 100.007812 C 59.53125 99.878906 59.65625 99.792969 59.785156 99.816406 C 64.96875 100.761719 69.042969 104.066406 69.082031 104.097656 C 69.183594 104.179688 69.199219 104.328125 69.117188 104.429688 C 69.070312 104.488281 69 104.519531 68.933594 104.519531 " fill-opacity="1" fill-rule="nonzero"/><path fill="#4a7582" d="M 69.167969 105.441406 L 69.121094 105.4375 C 69.074219 105.425781 64.074219 104.453125 61.558594 104.988281 C 61.433594 105.015625 61.304688 104.9375 61.28125 104.808594 C 61.253906 104.679688 61.332031 104.554688 61.460938 104.527344 C 64.070312 103.96875 69.003906 104.929688 69.214844 104.972656 C 69.34375 104.996094 69.425781 105.121094 69.398438 105.25 C 69.378906 105.363281 69.277344 105.441406 69.167969 105.441406 " fill-opacity="1" fill-rule="nonzero"/><path fill="#faa284" d="M 70.820312 37.890625 L 70.796875 43.746094 L 77.933594 43.777344 L 77.964844 36.15625 C 74.996094 38.105469 72.039062 38.050781 70.820312 37.890625 " fill-opacity="1" fill-rule="nonzero"/><path fill="#ef8d72" d="M 77.964844 36.160156 L 77.984375 30.292969 L 70.851562 30.257812 L 70.820312 37.890625 C 72.039062 38.050781 75 38.105469 77.964844 36.160156 " fill-opacity="1" fill-rule="nonzero"/><path fill="#faa284" d="M 73.367188 42.800781 C 75.933594 42.863281 78 41.3125 78.648438 40.535156 C 77.265625 40.285156 75.1875 39.800781 73.984375 39.785156 C 72.839844 39.773438 71.144531 40.160156 69.96875 40.367188 C 70.015625 40.933594 70.625 42.738281 73.367188 42.800781 " fill-opacity="1" fill-rule="nonzero"/><path fill="#f2af36" d="M 92.003906 45.511719 C 92.003906 42.734375 88.097656 42.171875 88.097656 42.171875 C 86.066406 41.785156 82.769531 41.292969 80.617188 40.773438 C 80.617188 40.773438 79.597656 40.546875 78.277344 40.308594 C 77.628906 41.082031 75.972656 42.382812 73.40625 42.316406 C 70.664062 42.253906 70.273438 40.746094 70.226562 40.179688 C 68.976562 40.398438 68.023438 40.632812 68.023438 40.632812 C 64.1875 41.4375 61.132812 42.171875 61.132812 42.171875 C 61.132812 42.171875 57.140625 42.734375 57.140625 45.511719 C 57.140625 46.769531 59.777344 48.601562 60.949219 49.253906 L 60.949219 49.5625 C 57.179688 52.519531 56.671875 54.738281 56.671875 57.265625 C 56.671875 62.546875 61.101562 63.839844 61.101562 63.839844 L 62.40625 78.28125 C 70.632812 82.605469 83.160156 78.164062 83.160156 78.164062 C 84.523438 68.839844 86.652344 62.851562 87.640625 56.894531 C 88.050781 54.40625 88.210938 51.632812 88.253906 49.167969 C 89.527344 48.453125 92.003906 46.71875 92.003906 45.511719 " fill-opacity="1" fill-rule="nonzero"/><path fill="#e2a034" d="M 57.796875 85.011719 C 57.796875 85.011719 57.019531 87.238281 56.699219 89.230469 C 56.699219 89.230469 67.683594 94.339844 88.460938 89.230469 L 87.085938 85.011719 L 57.796875 85.011719 " fill-opacity="1" fill-rule="nonzero"/><path fill="#f2af36" d="M 62.230469 76.257812 C 62.230469 76.257812 59.839844 80.855469 59.039062 82.257812 C 58.242188 83.660156 56.074219 83.308594 57.273438 86.382812 C 57.273438 86.382812 68.785156 91.414062 87.582031 86.386719 C 87.582031 86.386719 88.976562 83.546875 86.914062 82.4375 C 84.851562 81.332031 83.457031 76.257812 83.457031 76.257812 L 62.230469 76.257812 " fill-opacity="1" fill-rule="nonzero"/><path fill="#e2a034" d="M 72.960938 44.269531 C 77.351562 44.375 79.972656 42.332031 80.863281 40.832031 C 80.78125 40.8125 80.695312 40.792969 80.613281 40.773438 C 80.613281 40.773438 79.597656 40.542969 78.277344 40.304688 C 77.628906 41.082031 75.972656 42.378906 73.402344 42.320312 C 70.660156 42.257812 70.273438 40.746094 70.226562 40.179688 C 69.082031 40.382812 68.183594 40.59375 68.042969 40.628906 C 68.3125 41.902344 69.308594 44.1875 72.960938 44.269531 " fill-opacity="1" fill-rule="nonzero"/><path fill="#d99d30" d="M 75.113281 63.761719 C 75.039062 63.761719 74.960938 63.761719 74.886719 63.761719 C 74.175781 63.746094 73.460938 63.742188 72.746094 63.742188 C 72.253906 63.742188 71.757812 63.746094 71.265625 63.746094 C 70.683594 63.75 70.101562 63.753906 69.527344 63.753906 C 63.558594 63.753906 58.285156 63.433594 57.910156 59.519531 C 57.910156 59.519531 58.84375 60.316406 60.871094 60.488281 C 63.480469 60.714844 67.164062 61.097656 71.023438 61.097656 C 73.214844 61.097656 75.457031 60.976562 77.597656 60.628906 C 80.085938 60.230469 81.910156 58.96875 83.777344 57.496094 C 83.777344 57.496094 82.6875 63.761719 75.113281 63.761719 " fill-opacity="1" fill-rule="nonzero"/><path fill="#e5e5e5" d="M 83.949219 77.761719 C 83.632812 76.894531 83.457031 76.257812 83.457031 76.257812 L 83.453125 76.257812 C 83.710938 74.710938 83.984375 73.257812 84.265625 71.882812 C 83.988281 73.257812 83.714844 74.722656 83.464844 76.261719 C 83.464844 76.261719 83.722656 77.066406 83.949219 77.761719 M 84.777344 69.519531 C 84.988281 68.578125 85.203125 67.671875 85.410156 66.796875 L 85.4375 66.796875 C 85.21875 67.640625 84.996094 68.550781 84.777344 69.519531 M 61.40625 67.242188 L 61.367188 66.796875 L 61.40625 67.242188 " fill-opacity="1" fill-rule="nonzero"/><path fill="#d99d30" d="M 83.453125 76.257812 L 77.394531 76.257812 C 73.011719 74.40625 70.171875 72.601562 70.171875 72.601562 C 70.171875 72.601562 65.25 74.652344 62.191406 75.859375 L 61.40625 67.242188 L 61.367188 66.796875 L 85.410156 66.796875 C 85.203125 67.671875 84.988281 68.578125 84.777344 69.519531 C 84.605469 70.273438 84.433594 71.0625 84.265625 71.882812 C 83.984375 73.257812 83.710938 74.710938 83.453125 76.257812 " fill-opacity="1" fill-rule="nonzero"/><path fill="#d99d30" d="M 84.167969 78.449219 C 84.167969 78.449219 83.191406 78.335938 82.894531 78.265625 C 80.886719 77.652344 79.035156 76.953125 77.394531 76.257812 L 83.457031 76.257812 C 83.457031 76.257812 83.632812 76.894531 83.949219 77.761719 C 84.03125 78.019531 84.109375 78.265625 84.167969 78.449219 " fill-opacity="1" fill-rule="nonzero"/><path fill="#e2a034" d="M 76.332031 67.785156 L 74.703125 62.746094 L 70.792969 63.613281 L 72.582031 69.136719 L 76.332031 67.785156 " fill-opacity="1" fill-rule="nonzero"/><path fill="#eaa434" d="M 54.417969 67.9375 C 54.367188 67.953125 54.214844 67.996094 54.214844 67.996094 L 54.167969 68.011719 C 52.402344 68.625 51.515625 70.847656 52.199219 72.960938 C 52.886719 75.085938 54.949219 76.363281 56.757812 75.84375 C 57.269531 75.777344 62.363281 74.464844 73.105469 69.460938 L 71.039062 63.066406 C 66.398438 64.183594 59.328125 66.035156 54.417969 67.9375 " fill-opacity="1" fill-rule="nonzero"/><path fill="#faa284" d="M 64.4375 66.96875 C 64.4375 66.96875 61.941406 67.925781 58.980469 66.753906 L 56.152344 67.25 C 56.152344 67.25 55.265625 66.964844 55.742188 66.09375 C 55.742188 66.09375 55.351562 66.085938 55.359375 65.554688 C 55.363281 65.300781 55.609375 64.746094 55.609375 64.746094 C 55.269531 64.605469 55.183594 63.917969 55.652344 63.558594 C 55.652344 63.558594 55.265625 63.113281 55.71875 62.542969 C 56.136719 62.019531 57.527344 60.738281 58.171875 60.445312 C 58.816406 60.148438 61.738281 61.003906 64.65625 61.957031 C 67.707031 62.953125 66.886719 66.402344 64.4375 66.96875 " fill-opacity="1" fill-rule="nonzero"/><path fill="#ef8d72" d="M 55.742188 66.09375 C 55.742188 66.09375 57.691406 65.125 57.808594 65.375 C 57.929688 65.621094 55.742188 66.09375 55.742188 66.09375 " fill-opacity="1" fill-rule="nonzero"/><path fill="#ef8d72" d="M 55.609375 64.746094 C 55.609375 64.746094 57.730469 63.222656 57.808594 63.5 C 57.886719 63.777344 55.609375 64.746094 55.609375 64.746094 " fill-opacity="1" fill-rule="nonzero"/><path fill="#ef8d72" d="M 55.652344 63.558594 C 55.652344 63.558594 57.457031 61.792969 57.535156 61.957031 C 57.613281 62.117188 55.652344 63.558594 55.652344 63.558594 " fill-opacity="1" fill-rule="nonzero"/><path fill="#e2a034" d="M 65.625 62.410156 L 64.1875 67.503906 L 68.617188 69.167969 L 70.191406 63.578125 L 65.625 62.410156 " fill-opacity="1" fill-rule="nonzero"/><path fill="#f2af36" d="M 83.9375 76.007812 C 82.160156 75.335938 81.066406 73.492188 81.332031 71.605469 C 81.738281 65.6875 83.058594 46.496094 83.117188 46.148438 C 83.539062 43.578125 85.960938 41.835938 88.519531 42.257812 C 88.824219 42.308594 89.125 42.390625 89.414062 42.5 C 91.5 43.285156 92.753906 45.460938 92.398438 47.671875 L 89.386719 72.898438 L 89.382812 72.917969 C 88.988281 75.105469 86.890625 76.582031 84.707031 76.21875 C 84.445312 76.175781 84.1875 76.101562 83.9375 76.007812 " fill-opacity="1" fill-rule="nonzero"/><path fill="#f2af36" d="M 84.054688 75.960938 C 84.117188 75.976562 84.289062 76.035156 84.292969 76.035156 L 84.347656 76.050781 C 86.484375 76.621094 88.71875 75.34375 89.320312 73.207031 C 89.929688 71.054688 88.644531 68.761719 86.523438 68.089844 C 85.972656 67.835938 84.328125 66.425781 69.867188 62.996094 L 68.042969 69.464844 C 73.007812 71.828125 78.304688 74.847656 84.054688 75.960938 " fill-opacity="1" fill-rule="nonzero"/><path fill="#f4987f" d="M 74.730469 63.015625 C 74.730469 63.015625 81.289062 60.765625 82.476562 60.515625 C 83.386719 60.320312 85.226562 59.824219 86.46875 59.40625 C 86.84375 59.28125 88.066406 58.621094 88.195312 58.886719 C 88.285156 59.066406 88.546875 59.421875 87.832031 60.125 C 87.117188 60.832031 84.449219 61.453125 84.449219 61.453125 C 84.449219 61.453125 85.617188 61.796875 86.605469 62.09375 C 87.59375 62.386719 88.699219 62.515625 88.816406 62.769531 C 88.816406 62.769531 89.171875 63.632812 87.753906 63.703125 C 87.753906 63.703125 88.699219 63.839844 88.664062 64.230469 C 88.582031 65.160156 87.828125 65.085938 86.976562 65.046875 C 86.128906 65 84.574219 64.683594 83.84375 64.824219 L 86.292969 66.117188 C 86.292969 66.117188 87.226562 66.644531 87.320312 66.867188 C 87.417969 67.089844 87.296875 67.621094 86.371094 67.375 C 85.335938 67.097656 83.710938 65.6875 81.5 66.390625 L 74.71875 64.226562 L 74.730469 63.015625 " fill-opacity="1" fill-rule="nonzero"/><path fill="#e2846f" d="M 87.753906 63.703125 C 87.753906 63.703125 83.605469 63.195312 83.609375 62.808594 C 83.613281 62.425781 86.34375 63.425781 87.753906 63.703125 " fill-opacity="1" fill-rule="nonzero"/><path fill="#e2846f" d="M 84.449219 61.453125 C 84.449219 61.453125 83.019531 61.242188 83.121094 61.125 C 83.21875 61.007812 83.996094 61.230469 84.449219 61.453125 " fill-opacity="1" fill-rule="nonzero"/><path fill="#e2846f" d="M 83.84375 64.824219 C 83.84375 64.824219 82.933594 64.605469 82.992188 64.476562 C 83.132812 64.171875 83.84375 64.824219 83.84375 64.824219 " fill-opacity="1" fill-rule="nonzero"/><path fill="#a83916" d="M 60.902344 21.117188 C 60.902344 21.117188 60.582031 29.269531 59.84375 31.546875 C 59.109375 33.828125 51.109375 45.371094 64.265625 50.019531 C 64.265625 50.019531 62.691406 46.84375 65.128906 42.808594 C 67.0625 39.609375 72.261719 28.703125 67.867188 15.925781 L 60.773438 15.925781 L 60.902344 21.117188 " fill-opacity="1" fill-rule="nonzero"/><path fill="#faa284" d="M 84.496094 19.371094 C 84.496094 19.371094 87.007812 3.28125 73.734375 3.289062 C 60.144531 3.300781 61.414062 17.28125 61.449219 18.722656 C 61.796875 20.484375 62.226562 23.292969 62.09375 25.714844 C 61.753906 31.765625 66.835938 35.703125 71.347656 35.695312 C 80.019531 35.6875 83.214844 27.117188 83.214844 27.117188 C 84.339844 23.097656 84.496094 19.371094 84.496094 19.371094 " fill-opacity="1" fill-rule="nonzero"/><path fill="#a83916" d="M 62.578125 29.34375 C 61.679688 28.429688 61.230469 27.105469 61.488281 25.75 C 61.589844 25.191406 61.808594 24.675781 62.109375 24.234375 C 62.117188 24.46875 62.121094 24.707031 62.117188 24.9375 C 61.988281 25.210938 61.890625 25.507812 61.832031 25.816406 C 61.65625 26.761719 61.851562 27.6875 62.320312 28.445312 C 62.390625 28.75 62.476562 29.050781 62.578125 29.34375 " fill-opacity="1" fill-rule="nonzero"/><path fill="#faa284" d="M 65.445312 30.539062 C 65.195312 30.539062 64.941406 30.515625 64.6875 30.46875 C 63.855469 30.3125 63.132812 29.90625 62.578125 29.34375 C 62.476562 29.050781 62.390625 28.75 62.320312 28.445312 C 62.84375 29.289062 63.703125 29.917969 64.757812 30.121094 C 64.984375 30.164062 65.214844 30.1875 65.445312 30.1875 C 67.167969 30.1875 68.707031 28.953125 69.039062 27.191406 C 69.417969 25.1875 68.109375 23.261719 66.121094 22.882812 C 65.890625 22.839844 65.660156 22.820312 65.433594 22.820312 C 64.011719 22.820312 62.714844 23.65625 62.117188 24.9375 C 62.121094 24.707031 62.117188 24.46875 62.109375 24.234375 C 62.847656 23.144531 64.089844 22.464844 65.433594 22.464844 C 65.683594 22.464844 65.933594 22.488281 66.183594 22.535156 C 68.367188 22.953125 69.796875 25.066406 69.386719 27.253906 C 69.023438 29.1875 67.339844 30.539062 65.445312 30.539062 " fill-opacity="1" fill-rule="nonzero"/><path fill="#ad3e1c" d="M 62.320312 28.445312 C 61.851562 27.6875 61.65625 26.761719 61.832031 25.816406 C 61.890625 25.507812 61.988281 25.210938 62.117188 24.9375 C 62.113281 25.199219 62.105469 25.460938 62.09375 25.714844 C 62.039062 26.679688 62.121094 27.59375 62.320312 28.445312 " fill-opacity="1" fill-rule="nonzero"/><path fill="#f99e81" d="M 65.445312 30.1875 C 65.214844 30.1875 64.984375 30.164062 64.757812 30.121094 C 63.703125 29.917969 62.84375 29.289062 62.320312 28.445312 C 62.121094 27.59375 62.039062 26.679688 62.09375 25.714844 C 62.105469 25.460938 62.113281 25.199219 62.117188 24.9375 C 62.714844 23.65625 64.011719 22.820312 65.433594 22.820312 C 65.660156 22.820312 65.890625 22.839844 66.121094 22.882812 C 68.109375 23.261719 69.417969 25.1875 69.039062 27.191406 C 68.707031 28.953125 67.167969 30.1875 65.445312 30.1875 M 65.433594 23.175781 C 63.871094 23.175781 62.480469 24.285156 62.179688 25.882812 C 61.839844 27.6875 63.023438 29.429688 64.820312 29.773438 C 65.027344 29.8125 65.238281 29.832031 65.445312 29.832031 C 67.003906 29.832031 68.390625 28.714844 68.691406 27.121094 C 69.035156 25.316406 67.851562 23.574219 66.054688 23.234375 C 65.847656 23.195312 65.636719 23.175781 65.433594 23.175781 " fill-opacity="1" fill-rule="nonzero"/><path fill="#f79b7f" d="M 65.445312 29.832031 C 65.238281 29.832031 65.027344 29.8125 64.820312 29.773438 C 63.023438 29.429688 61.839844 27.6875 62.179688 25.882812 C 62.480469 24.285156 63.871094 23.175781 65.433594 23.175781 C 65.636719 23.175781 65.847656 23.195312 66.054688 23.234375 C 67.851562 23.574219 69.035156 25.316406 68.691406 27.121094 C 68.390625 28.714844 67.003906 29.832031 65.445312 29.832031 M 65.433594 23.53125 C 64.039062 23.53125 62.796875 24.523438 62.527344 25.949219 C 62.222656 27.566406 63.28125 29.121094 64.886719 29.425781 C 65.070312 29.460938 65.253906 29.476562 65.433594 29.476562 C 66.832031 29.476562 68.078125 28.484375 68.34375 27.058594 C 68.648438 25.445312 67.59375 23.890625 65.988281 23.582031 C 65.804688 23.546875 65.617188 23.53125 65.433594 23.53125 " fill-opacity="1" fill-rule="nonzero"/><path fill="#f6967b" d="M 65.433594 29.476562 C 65.253906 29.476562 65.070312 29.460938 64.886719 29.425781 C 63.28125 29.121094 62.222656 27.566406 62.527344 25.949219 C 62.796875 24.523438 64.039062 23.53125 65.433594 23.53125 C 65.617188 23.53125 65.804688 23.546875 65.988281 23.582031 C 67.59375 23.890625 68.648438 25.445312 68.34375 27.058594 C 68.078125 28.484375 66.832031 29.476562 65.433594 29.476562 M 65.433594 23.886719 C 64.207031 23.886719 63.113281 24.761719 62.871094 26.015625 C 62.605469 27.4375 63.539062 28.808594 64.949219 29.078125 C 65.113281 29.109375 65.277344 29.121094 65.4375 29.121094 C 66.667969 29.121094 67.761719 28.246094 68 26.988281 C 68.269531 25.570312 67.339844 24.199219 65.921875 23.933594 C 65.757812 23.902344 65.59375 23.886719 65.433594 23.886719 " fill-opacity="1" fill-rule="nonzero"/><path fill="#f49378" d="M 65.4375 29.121094 C 65.277344 29.121094 65.113281 29.109375 64.949219 29.078125 C 63.539062 28.808594 62.605469 27.4375 62.871094 26.015625 C 63.113281 24.761719 64.207031 23.886719 65.433594 23.886719 C 65.59375 23.886719 65.757812 23.902344 65.921875 23.933594 C 67.339844 24.199219 68.269531 25.570312 68 26.988281 C 67.761719 28.246094 66.667969 29.121094 65.4375 29.121094 M 65.4375 24.238281 C 64.375 24.238281 63.425781 24.992188 63.21875 26.082031 C 62.992188 27.308594 63.792969 28.492188 65.019531 28.726562 C 65.160156 28.753906 65.304688 28.769531 65.441406 28.769531 C 66.5 28.769531 67.449219 28.011719 67.652344 26.925781 C 67.882812 25.695312 67.082031 24.511719 65.859375 24.277344 C 65.71875 24.25 65.578125 24.238281 65.4375 24.238281 " fill-opacity="1" fill-rule="nonzero"/><path fill="#f38f75" d="M 65.441406 28.769531 C 65.304688 28.769531 65.160156 28.753906 65.019531 28.726562 C 63.792969 28.492188 62.992188 27.308594 63.21875 26.082031 C 63.425781 24.992188 64.375 24.238281 65.4375 24.238281 C 65.578125 24.238281 65.71875 24.25 65.859375 24.277344 C 67.082031 24.511719 67.882812 25.695312 67.652344 26.925781 C 67.449219 28.011719 66.5 28.769531 65.441406 28.769531 M 65.433594 24.59375 C 64.539062 24.59375 63.738281 25.230469 63.570312 26.148438 C 63.375 27.1875 64.050781 28.183594 65.082031 28.378906 C 65.203125 28.398438 65.320312 28.410156 65.4375 28.410156 C 66.332031 28.410156 67.132812 27.773438 67.304688 26.859375 C 67.5 25.824219 66.820312 24.820312 65.789062 24.625 C 65.671875 24.605469 65.554688 24.59375 65.433594 24.59375 " fill-opacity="1" fill-rule="nonzero"/><path fill="#f28b72" d="M 65.4375 28.410156 C 65.320312 28.410156 65.203125 28.398438 65.082031 28.378906 C 64.050781 28.183594 63.375 27.1875 63.570312 26.148438 C 63.738281 25.230469 64.539062 24.59375 65.433594 24.59375 C 65.554688 24.59375 65.671875 24.605469 65.789062 24.625 C 66.820312 24.820312 67.5 25.824219 67.304688 26.859375 C 67.132812 27.773438 66.332031 28.410156 65.4375 28.410156 M 65.4375 24.949219 C 64.707031 24.949219 64.058594 25.46875 63.917969 26.214844 C 63.753906 27.058594 64.308594 27.871094 65.148438 28.027344 C 65.25 28.046875 65.347656 28.054688 65.441406 28.054688 C 66.171875 28.054688 66.816406 27.539062 66.957031 26.792969 C 67.117188 25.949219 66.5625 25.136719 65.726562 24.976562 C 65.628906 24.957031 65.535156 24.949219 65.4375 24.949219 " fill-opacity="1" fill-rule="nonzero"/><path fill="#f1886f" d="M 65.441406 28.054688 C 65.347656 28.054688 65.25 28.046875 65.148438 28.027344 C 64.308594 27.871094 63.753906 27.058594 63.917969 26.214844 C 64.058594 25.46875 64.707031 24.949219 65.4375 24.949219 C 65.535156 24.949219 65.628906 24.957031 65.726562 24.976562 C 66.5625 25.136719 67.117188 25.949219 66.957031 26.792969 C 66.816406 27.539062 66.171875 28.054688 65.441406 28.054688 M 65.433594 25.304688 C 64.871094 25.304688 64.371094 25.703125 64.265625 26.277344 C 64.140625 26.929688 64.566406 27.5625 65.214844 27.679688 C 65.289062 27.695312 65.367188 27.703125 65.4375 27.703125 C 66 27.703125 66.5 27.300781 66.609375 26.726562 C 66.734375 26.074219 66.308594 25.449219 65.660156 25.324219 C 65.585938 25.308594 65.507812 25.304688 65.433594 25.304688 " fill-opacity="1" fill-rule="nonzero"/><path fill="#ef846c" d="M 65.4375 27.703125 C 65.367188 27.703125 65.289062 27.695312 65.214844 27.679688 C 64.566406 27.5625 64.140625 26.929688 64.265625 26.277344 C 64.371094 25.703125 64.871094 25.304688 65.433594 25.304688 C 65.507812 25.304688 65.585938 25.308594 65.660156 25.324219 C 66.308594 25.449219 66.734375 26.074219 66.609375 26.726562 C 66.5 27.300781 66 27.703125 65.4375 27.703125 M 65.4375 25.660156 C 65.042969 25.660156 64.6875 25.941406 64.613281 26.347656 C 64.523438 26.804688 64.824219 27.246094 65.28125 27.335938 C 65.335938 27.34375 65.386719 27.347656 65.433594 27.347656 C 65.832031 27.347656 66.1875 27.066406 66.265625 26.664062 C 66.351562 26.203125 66.050781 25.757812 65.59375 25.671875 C 65.542969 25.664062 65.492188 25.660156 65.4375 25.660156 " fill-opacity="1" fill-rule="nonzero"/><path fill="#ee7f69" d="M 65.433594 27.347656 C 65.386719 27.347656 65.335938 27.34375 65.28125 27.335938 C 64.824219 27.246094 64.523438 26.804688 64.613281 26.347656 C 64.6875 25.941406 65.042969 25.660156 65.4375 25.660156 C 65.492188 25.660156 65.542969 25.664062 65.59375 25.671875 C 66.050781 25.757812 66.351562 26.203125 66.265625 26.664062 C 66.1875 27.066406 65.832031 27.347656 65.433594 27.347656 M 65.433594 26.015625 C 65.207031 26.015625 65 26.175781 64.953125 26.410156 C 64.910156 26.679688 65.082031 26.933594 65.34375 26.984375 C 65.375 26.992188 65.40625 26.996094 65.4375 26.996094 C 65.667969 26.996094 65.875 26.832031 65.917969 26.59375 C 65.96875 26.328125 65.789062 26.070312 65.527344 26.023438 C 65.496094 26.019531 65.464844 26.015625 65.433594 26.015625 " fill-opacity="1" fill-rule="nonzero"/><path fill="#ec7b66" d="M 65.4375 26.996094 C 65.40625 26.996094 65.375 26.992188 65.34375 26.984375 C 65.082031 26.933594 64.910156 26.679688 64.953125 26.410156 C 65 26.175781 65.207031 26.015625 65.433594 26.015625 C 65.464844 26.015625 65.496094 26.019531 65.527344 26.023438 C 65.789062 26.070312 65.96875 26.328125 65.917969 26.59375 C 65.875 26.832031 65.667969 26.996094 65.4375 26.996094 M 65.4375 26.363281 C 65.371094 26.363281 65.316406 26.410156 65.304688 26.480469 C 65.289062 26.550781 65.339844 26.625 65.414062 26.636719 C 65.421875 26.636719 65.429688 26.636719 65.4375 26.636719 C 65.5 26.636719 65.558594 26.59375 65.570312 26.53125 C 65.582031 26.453125 65.535156 26.386719 65.464844 26.367188 C 65.457031 26.367188 65.449219 26.363281 65.4375 26.363281 " fill-opacity="1" fill-rule="nonzero"/><path fill="#ec7964" d="M 65.4375 26.636719 C 65.429688 26.636719 65.421875 26.636719 65.414062 26.636719 C 65.339844 26.625 65.289062 26.550781 65.304688 26.480469 C 65.316406 26.410156 65.371094 26.363281 65.4375 26.363281 C 65.449219 26.363281 65.457031 26.367188 65.464844 26.367188 C 65.535156 26.386719 65.582031 26.453125 65.570312 26.53125 C 65.558594 26.59375 65.5 26.636719 65.4375 26.636719 " fill-opacity="1" fill-rule="nonzero"/><path fill="#faa284" d="M 77.023438 30.820312 C 76.757812 30.820312 76.492188 30.796875 76.222656 30.746094 C 73.882812 30.304688 72.351562 28.039062 72.792969 25.691406 C 73.183594 23.617188 74.988281 22.171875 77.011719 22.171875 C 77.28125 22.171875 77.550781 22.199219 77.824219 22.25 C 80.160156 22.691406 81.695312 24.953125 81.257812 27.300781 C 80.867188 29.375 79.054688 30.820312 77.023438 30.820312 M 77.019531 22.550781 C 75.171875 22.550781 73.523438 23.871094 73.160156 25.761719 C 72.761719 27.902344 74.160156 29.96875 76.292969 30.371094 C 76.539062 30.417969 76.785156 30.441406 77.027344 30.441406 C 78.878906 30.441406 80.527344 29.121094 80.882812 27.226562 C 81.285156 25.089844 79.886719 23.023438 77.757812 22.621094 C 77.511719 22.574219 77.261719 22.550781 77.019531 22.550781 " fill-opacity="1" fill-rule="nonzero"/><path fill="#f99e81" d="M 77.027344 30.441406 C 76.785156 30.441406 76.539062 30.417969 76.292969 30.371094 C 74.160156 29.96875 72.761719 27.902344 73.160156 25.761719 C 73.523438 23.871094 75.171875 22.550781 77.019531 22.550781 C 77.261719 22.550781 77.511719 22.574219 77.757812 22.621094 C 79.886719 23.023438 81.285156 25.089844 80.882812 27.226562 C 80.527344 29.121094 78.878906 30.441406 77.027344 30.441406 M 77.019531 22.933594 C 75.347656 22.933594 73.859375 24.121094 73.535156 25.835938 C 73.171875 27.769531 74.4375 29.636719 76.363281 30 C 76.589844 30.042969 76.8125 30.0625 77.027344 30.0625 C 78.703125 30.0625 80.191406 28.871094 80.511719 27.160156 C 80.878906 25.226562 79.609375 23.363281 77.683594 22.996094 C 77.460938 22.953125 77.238281 22.933594 77.019531 22.933594 " fill-opacity="1" fill-rule="nonzero"/><path fill="#f79b7f" d="M 77.027344 30.0625 C 76.8125 30.0625 76.589844 30.042969 76.363281 30 C 74.4375 29.636719 73.171875 27.769531 73.535156 25.835938 C 73.859375 24.121094 75.347656 22.933594 77.019531 22.933594 C 77.238281 22.933594 77.460938 22.953125 77.683594 22.996094 C 79.609375 23.363281 80.878906 25.226562 80.511719 27.160156 C 80.191406 28.871094 78.703125 30.0625 77.027344 30.0625 M 77.015625 23.3125 C 75.527344 23.3125 74.199219 24.375 73.910156 25.902344 C 73.582031 27.632812 74.714844 29.296875 76.433594 29.625 C 76.632812 29.664062 76.832031 29.683594 77.027344 29.683594 C 78.519531 29.683594 79.851562 28.617188 80.140625 27.085938 C 80.46875 25.363281 79.335938 23.695312 77.613281 23.371094 C 77.414062 23.332031 77.214844 23.3125 77.015625 23.3125 " fill-opacity="1" fill-rule="nonzero"/><path fill="#f6967b" d="M 77.027344 29.683594 C 76.832031 29.683594 76.632812 29.664062 76.433594 29.625 C 74.714844 29.296875 73.582031 27.632812 73.910156 25.902344 C 74.199219 24.375 75.527344 23.3125 77.015625 23.3125 C 77.214844 23.3125 77.414062 23.332031 77.613281 23.371094 C 79.335938 23.695312 80.46875 25.363281 80.140625 27.085938 C 79.851562 28.617188 78.519531 29.683594 77.027344 29.683594 M 77.019531 23.691406 C 75.707031 23.691406 74.535156 24.628906 74.277344 25.976562 C 73.992188 27.496094 74.988281 28.964844 76.503906 29.25 C 76.683594 29.285156 76.855469 29.300781 77.03125 29.300781 C 78.34375 29.300781 79.515625 28.363281 79.765625 27.019531 C 80.054688 25.496094 79.058594 24.03125 77.546875 23.742188 C 77.367188 23.707031 77.195312 23.691406 77.019531 23.691406 " fill-opacity="1" fill-rule="nonzero"/><path fill="#f49378" d="M 77.03125 29.300781 C 76.855469 29.300781 76.683594 29.285156 76.503906 29.25 C 74.988281 28.964844 73.992188 27.496094 74.277344 25.976562 C 74.535156 24.628906 75.707031 23.691406 77.019531 23.691406 C 77.195312 23.691406 77.367188 23.707031 77.546875 23.742188 C 79.058594 24.03125 80.054688 25.496094 79.765625 27.019531 C 79.515625 28.363281 78.34375 29.300781 77.03125 29.300781 M 77.015625 24.070312 C 75.882812 24.070312 74.867188 24.882812 74.652344 26.046875 C 74.40625 27.359375 75.265625 28.628906 76.574219 28.878906 C 76.722656 28.910156 76.875 28.921875 77.023438 28.921875 C 78.160156 28.921875 79.175781 28.113281 79.398438 26.949219 C 79.644531 25.632812 78.78125 24.363281 77.472656 24.117188 C 77.320312 24.085938 77.167969 24.070312 77.015625 24.070312 " fill-opacity="1" fill-rule="nonzero"/><path fill="#f38f75" d="M 77.023438 28.921875 C 76.875 28.921875 76.722656 28.910156 76.574219 28.878906 C 75.265625 28.628906 74.40625 27.359375 74.652344 26.046875 C 74.867188 24.882812 75.882812 24.070312 77.015625 24.070312 C 77.167969 24.070312 77.320312 24.085938 77.472656 24.117188 C 78.78125 24.363281 79.644531 25.632812 79.398438 26.949219 C 79.175781 28.113281 78.160156 28.921875 77.023438 28.921875 M 77.023438 24.449219 C 76.0625 24.449219 75.210938 25.132812 75.023438 26.117188 C 74.8125 27.226562 75.542969 28.296875 76.644531 28.503906 C 76.773438 28.53125 76.898438 28.542969 77.023438 28.542969 C 77.988281 28.542969 78.839844 27.859375 79.023438 26.878906 C 79.230469 25.769531 78.507812 24.699219 77.402344 24.484375 C 77.277344 24.460938 77.148438 24.449219 77.023438 24.449219 " fill-opacity="1" fill-rule="nonzero"/><path fill="#f28b72" d="M 77.023438 28.542969 C 76.898438 28.542969 76.773438 28.53125 76.644531 28.503906 C 75.542969 28.296875 74.8125 27.226562 75.023438 26.117188 C 75.210938 25.132812 76.0625 24.449219 77.023438 24.449219 C 77.148438 24.449219 77.277344 24.460938 77.402344 24.484375 C 78.507812 24.699219 79.230469 25.769531 79.023438 26.878906 C 78.839844 27.859375 77.988281 28.542969 77.023438 28.542969 M 77.023438 24.832031 C 76.242188 24.832031 75.542969 25.386719 75.394531 26.191406 C 75.222656 27.089844 75.820312 27.960938 76.714844 28.128906 C 76.820312 28.152344 76.925781 28.160156 77.027344 28.160156 C 77.804688 28.160156 78.503906 27.605469 78.65625 26.808594 C 78.824219 25.902344 78.230469 25.03125 77.332031 24.859375 C 77.230469 24.839844 77.125 24.832031 77.023438 24.832031 " fill-opacity="1" fill-rule="nonzero"/><path fill="#f1886f" d="M 77.027344 28.160156 C 76.925781 28.160156 76.820312 28.152344 76.714844 28.128906 C 75.820312 27.960938 75.222656 27.089844 75.394531 26.191406 C 75.542969 25.386719 76.242188 24.832031 77.023438 24.832031 C 77.125 24.832031 77.230469 24.839844 77.332031 24.859375 C 78.230469 25.03125 78.824219 25.902344 78.65625 26.808594 C 78.503906 27.605469 77.804688 28.160156 77.027344 28.160156 M 77.019531 25.210938 C 76.421875 25.210938 75.882812 25.640625 75.765625 26.257812 C 75.636719 26.957031 76.09375 27.628906 76.785156 27.761719 C 76.867188 27.777344 76.945312 27.78125 77.023438 27.78125 C 77.628906 27.78125 78.164062 27.351562 78.28125 26.734375 C 78.414062 26.039062 77.957031 25.367188 77.261719 25.234375 C 77.179688 25.222656 77.101562 25.210938 77.019531 25.210938 " fill-opacity="1" fill-rule="nonzero"/><path fill="#ef846c" d="M 77.023438 27.78125 C 76.945312 27.78125 76.867188 27.777344 76.785156 27.761719 C 76.09375 27.628906 75.636719 26.957031 75.765625 26.257812 C 75.882812 25.640625 76.421875 25.210938 77.019531 25.210938 C 77.101562 25.210938 77.179688 25.222656 77.261719 25.234375 C 77.957031 25.367188 78.414062 26.039062 78.28125 26.734375 C 78.164062 27.351562 77.628906 27.78125 77.023438 27.78125 M 77.027344 25.589844 C 76.601562 25.589844 76.21875 25.890625 76.140625 26.328125 C 76.046875 26.820312 76.367188 27.292969 76.855469 27.386719 C 76.914062 27.398438 76.972656 27.402344 77.027344 27.402344 C 77.449219 27.402344 77.828125 27.097656 77.910156 26.667969 C 78 26.171875 77.679688 25.699219 77.191406 25.605469 C 77.136719 25.597656 77.082031 25.589844 77.027344 25.589844 " fill-opacity="1" fill-rule="nonzero"/><path fill="#ee7f69" d="M 77.027344 27.402344 C 76.972656 27.402344 76.914062 27.398438 76.855469 27.386719 C 76.367188 27.292969 76.046875 26.820312 76.140625 26.328125 C 76.21875 25.890625 76.601562 25.589844 77.027344 25.589844 C 77.082031 25.589844 77.136719 25.597656 77.191406 25.605469 C 77.679688 25.699219 78 26.171875 77.910156 26.667969 C 77.828125 27.097656 77.449219 27.402344 77.027344 27.402344 M 77.019531 25.972656 C 76.777344 25.972656 76.558594 26.148438 76.507812 26.398438 C 76.460938 26.683594 76.644531 26.960938 76.925781 27.011719 C 76.957031 27.019531 76.992188 27.019531 77.023438 27.019531 C 77.269531 27.019531 77.492188 26.84375 77.535156 26.59375 C 77.589844 26.308594 77.402344 26.035156 77.121094 25.980469 C 77.085938 25.972656 77.054688 25.972656 77.019531 25.972656 " fill-opacity="1" fill-rule="nonzero"/><path fill="#ec7b66" d="M 77.023438 27.019531 C 76.992188 27.019531 76.957031 27.019531 76.925781 27.011719 C 76.644531 26.960938 76.460938 26.683594 76.507812 26.398438 C 76.558594 26.148438 76.777344 25.972656 77.019531 25.972656 C 77.054688 25.972656 77.085938 25.972656 77.121094 25.980469 C 77.402344 26.035156 77.589844 26.308594 77.535156 26.59375 C 77.492188 26.84375 77.269531 27.019531 77.023438 27.019531 M 77.019531 26.351562 C 76.953125 26.351562 76.894531 26.398438 76.882812 26.46875 C 76.867188 26.546875 76.921875 26.625 76.996094 26.640625 C 77.003906 26.640625 77.011719 26.640625 77.019531 26.640625 C 77.089844 26.640625 77.152344 26.59375 77.164062 26.527344 C 77.179688 26.445312 77.128906 26.367188 77.050781 26.355469 C 77.042969 26.351562 77.03125 26.351562 77.019531 26.351562 " fill-opacity="1" fill-rule="nonzero"/><path fill="#ec7964" d="M 77.019531 26.640625 C 77.011719 26.640625 77.003906 26.640625 76.996094 26.640625 C 76.921875 26.625 76.867188 26.546875 76.882812 26.46875 C 76.894531 26.398438 76.953125 26.351562 77.019531 26.351562 C 77.03125 26.351562 77.042969 26.351562 77.050781 26.355469 C 77.128906 26.367188 77.179688 26.445312 77.164062 26.527344 C 77.152344 26.59375 77.089844 26.640625 77.019531 26.640625 " fill-opacity="1" fill-rule="nonzero"/><path fill="#db7c65" d="M 71.25 27.179688 C 69.742188 27.867188 68.796875 27.511719 68.601562 26.496094 C 68.476562 25.835938 68.859375 25.078125 69.269531 24.710938 C 70.117188 23.957031 70.496094 21.75 70.496094 21.726562 C 70.5625 22.195312 70.46875 24.046875 69.4375 25.324219 C 69.214844 25.601562 69.125 25.859375 69.148438 26.191406 C 69.203125 26.945312 69.925781 27.535156 71.25 27.179688 " fill-opacity="1" fill-rule="nonzero"/><path fill="#502f26" d="M 65.792969 20.476562 C 65.792969 20.476562 64.472656 20.511719 64.28125 20.019531 C 64.28125 20.019531 64.125 20.722656 64.929688 20.945312 C 64.679688 21.261719 64.527344 21.710938 64.535156 22.210938 C 64.550781 23.15625 65.136719 23.917969 65.847656 23.90625 C 66.554688 23.894531 67.121094 23.121094 67.105469 22.171875 C 67.089844 21.226562 66.503906 20.46875 65.792969 20.476562 " fill-opacity="1" fill-rule="nonzero"/><path fill="#502f26" d="M 75.453125 20.320312 C 75.453125 20.320312 74.132812 20.359375 73.941406 19.863281 C 73.941406 19.863281 73.785156 20.570312 74.589844 20.789062 C 74.34375 21.109375 74.1875 21.558594 74.195312 22.054688 C 74.210938 23.003906 74.796875 23.761719 75.507812 23.75 C 76.21875 23.742188 76.78125 22.964844 76.765625 22.015625 C 76.75 21.070312 76.164062 20.3125 75.453125 20.320312 " fill-opacity="1" fill-rule="nonzero"/><path fill="#a83916" d="M 67.582031 17.824219 C 67.582031 17.824219 65.457031 17.246094 62.554688 18.09375 C 62.554688 18.09375 62.535156 17.882812 63.082031 17.410156 C 63.597656 16.96875 65.507812 16.496094 67.152344 17.171875 C 67.152344 17.171875 68.003906 17.628906 67.582031 17.824219 " fill-opacity="1" fill-rule="nonzero"/><path fill="#a83916" d="M 72.679688 17.9375 C 72.679688 17.9375 74.792969 17.320312 77.710938 18.117188 C 77.710938 18.117188 77.726562 17.902344 77.171875 17.441406 C 76.652344 17.011719 74.730469 16.570312 73.101562 17.273438 C 73.101562 17.273438 72.257812 17.746094 72.679688 17.9375 " fill-opacity="1" fill-rule="nonzero"/><path fill="#b22828" d="M 74.382812 28.574219 C 74.382812 28.574219 71.015625 29.324219 67.867188 28.679688 C 67.867188 28.679688 68.46875 31.570312 71.167969 31.519531 C 73.71875 31.476562 74.363281 29.136719 74.382812 28.574219 " fill-opacity="1" fill-rule="nonzero"/><path fill="#ffffff" d="M 71.074219 30.015625 C 68.996094 30.046875 68.375 29.191406 68.105469 28.722656 C 70.550781 29.167969 72.511719 28.847656 74.21875 28.609375 C 74.042969 29.136719 73.03125 29.984375 71.074219 30.015625 " fill-opacity="1" fill-rule="nonzero"/><path fill="#faa284" d="M 84.1875 19.410156 C 84.1875 19.410156 82.941406 19.683594 82.511719 23.195312 C 82.078125 26.703125 82.953125 26.996094 83.214844 27.117188 C 83.214844 27.117188 86.378906 28.003906 87.480469 22.742188 C 88.390625 18.371094 84.1875 19.410156 84.1875 19.410156 " fill-opacity="1" fill-rule="nonzero"/><path fill="#db7c65" d="M 83.308594 24.699219 C 83.308594 24.699219 85.617188 23.539062 83.8125 22.375 C 83.8125 22.375 84.417969 19.722656 85.964844 20.320312 C 87.507812 20.921875 86.269531 23.40625 85.964844 23.921875 C 85.320312 24.996094 83.308594 26.316406 83.308594 24.699219 " fill-opacity="1" fill-rule="nonzero"/><g clip-path="url(#e4f10fb460)"><path fill="#a83916" d="M 69.457031 7.578125 C 69.457031 7.578125 71.847656 12.308594 77.476562 15.152344 C 82.816406 17.84375 81.652344 21.9375 81.195312 25.925781 C 80.742188 29.914062 79.785156 34.636719 80.625 38.257812 C 82.390625 45.867188 80.882812 48.035156 79.230469 50.007812 C 79.230469 50.007812 92.75 50.136719 93.527344 39.675781 C 94.546875 25.925781 88.328125 13.742188 86.914062 9.828125 C 85.015625 4.582031 78.054688 -2.4375 70.277344 1.820312 C 70.277344 1.820312 61.847656 -0.386719 60.222656 8.683594 C 59.101562 14.953125 60.929688 21.0625 60.929688 21.0625 C 60.929688 21.0625 61.019531 9.785156 69.457031 7.578125 " fill-opacity="1" fill-rule="nonzero"/></g><path fill="#bf4c2c" d="M 63.070312 3.234375 C 61.863281 4.230469 60.835938 5.792969 60.316406 8.21875 C 61.691406 9.027344 63.351562 9.589844 65.199219 9.953125 C 65.933594 9.25 66.792969 8.640625 67.800781 8.171875 C 65.378906 7.308594 63.914062 5.109375 63.070312 3.234375 " fill-opacity="1" fill-rule="nonzero"/><path fill="#bf4c2c" d="M 81.3125 2.605469 C 76.472656 7.007812 72.804688 8.550781 70.042969 8.550781 C 70.382812 9.070312 70.882812 9.757812 71.550781 10.523438 C 76.667969 10.550781 82.183594 9.761719 86.546875 8.929688 C 85.53125 6.691406 83.683594 4.269531 81.3125 2.605469 " fill-opacity="1" fill-rule="nonzero"/><path fill="#932d12" d="M 70.277344 1.820312 C 70.277344 1.820312 68.011719 4.742188 69.457031 7.578125 C 69.457031 7.578125 66.902344 5.214844 70.277344 1.820312 " fill-opacity="1" fill-rule="nonzero"/></svg>